<?xml version="1.0" encoding="utf-8"?>
<!-- Generator: Adobe Illustrator 16.0.0, SVG Export Plug-In . SVG Version: 6.00 Build 0)  -->
<!DOCTYPE svg PUBLIC "-//W3C//DTD SVG 1.1//EN" "http://www.w3.org/Graphics/SVG/1.1/DTD/svg11.dtd">
<svg version="1.1" id="Layer_1" xmlns="http://www.w3.org/2000/svg" xmlns:xlink="http://www.w3.org/1999/xlink" x="0px" y="0px"
	 width="80px" height="80px" viewBox="0 0 80 80" enable-background="new 0 0 80 80" xml:space="preserve">
<circle fill="#327BBF" cx="40.748" cy="39.933" r="34.486"/>
<g>
	<path fill="#7B7B7B" d="M22.895,5.764c-0.178,0-0.359,0.041-0.528,0.128c-0.002,0.001-0.003,0.001-0.005,0.002
		c-0.003,0.002-0.006,0.003-0.009,0.005C22.351,5.9,22.35,5.901,22.348,5.902c-0.003,0.001-0.007,0.003-0.011,0.005
		c-0.002,0.001-0.002,0.001-0.004,0.002c-0.005,0.003-0.01,0.005-0.015,0.008l-0.001,0c-0.004,0.002-0.009,0.005-0.014,0.007
		c-0.001,0-0.003,0.001-0.004,0.002c-0.004,0.002-0.008,0.004-0.011,0.006c-0.002,0.001-0.002,0.001-0.004,0.002
		c-0.004,0.002-0.008,0.004-0.012,0.006c-0.001,0-0.002,0.001-0.003,0.002c-0.01,0.005-0.02,0.01-0.03,0.016
		c-0.001,0-0.003,0.001-0.004,0.002c-0.004,0.002-0.007,0.004-0.011,0.006c-0.002,0.001-0.001,0.001-0.004,0.002
		c-0.004,0.002-0.008,0.004-0.012,0.006c-0.001,0-0.002,0.001-0.003,0.001c-0.01,0.005-0.02,0.011-0.03,0.016l-0.003,0.001
		C22.167,5.996,22.163,5.999,22.158,6c-0.001,0.001-0.002,0.001-0.003,0.002c-0.004,0.002-0.008,0.004-0.012,0.006
		c-0.001,0-0.002,0.001-0.003,0.001c-0.005,0.002-0.01,0.005-0.015,0.008c-0.001,0,0,0,0,0c-0.005,0.002-0.011,0.005-0.016,0.008
		c-0.001,0.001,0,0-0.001,0.001c-0.005,0.002-0.009,0.005-0.014,0.007c-0.001,0,0,0-0.002,0.001
		c-0.005,0.002-0.009,0.005-0.014,0.007c-0.001,0.001,0,0-0.001,0.001c-0.016,0.008-0.031,0.017-0.047,0.025l-0.001,0
		c-0.005,0.002-0.01,0.005-0.015,0.008l-0.001,0.001c-0.016,0.008-0.031,0.016-0.047,0.024l-0.001,0.001
		c-0.004,0.002-0.009,0.005-0.014,0.007l-0.002,0.001c-0.005,0.002-0.01,0.005-0.015,0.007v0c-0.016,0.008-0.032,0.017-0.047,0.025
		l-0.001,0c-0.021,0.011-0.042,0.022-0.063,0.034l0,0c-0.005,0.003-0.011,0.006-0.016,0.009l0,0
		c-0.154,0.083-0.307,0.167-0.46,0.251h0c-0.29,0.161-0.577,0.326-0.862,0.494l0,0c-0.005,0.003-0.01,0.006-0.015,0.009l0,0
		c-0.016,0.009-0.031,0.018-0.046,0.027h0c-0.005,0.003-0.01,0.006-0.015,0.009l0,0c-0.015,0.009-0.03,0.018-0.046,0.027
		c-0.001,0,0,0-0.001,0.001c-0.004,0.002-0.009,0.005-0.014,0.008c-0.001,0-0.001,0-0.002,0.001
		c-0.015,0.009-0.031,0.018-0.045,0.027c-0.001,0,0,0-0.001,0c-0.005,0.003-0.009,0.005-0.014,0.008c-0.001,0-0.001,0-0.002,0.001
		c-0.015,0.009-0.03,0.018-0.045,0.027l0,0c-0.005,0.003-0.009,0.005-0.014,0.008l-0.002,0.001
		c-0.005,0.003-0.009,0.005-0.014,0.008l0,0c-0.01,0.006-0.021,0.013-0.031,0.019l-0.001,0c-0.004,0.003-0.009,0.006-0.014,0.008
		l-0.002,0.001c-0.004,0.003-0.009,0.005-0.013,0.008l-0.001,0c-0.01,0.006-0.02,0.012-0.03,0.019h0
		c-0.004,0.003-0.009,0.006-0.014,0.009c-0.001,0-0.002,0.001-0.003,0.001c-0.004,0.002-0.008,0.005-0.013,0.008
		c-0.001,0-0.001,0-0.002,0.001c-0.015,0.009-0.03,0.018-0.044,0.027c-0.001,0-0.001,0-0.002,0.001
		c-0.004,0.003-0.009,0.006-0.013,0.008c-0.001,0,0,0-0.001,0.001c-0.015,0.009-0.03,0.018-0.045,0.027
		c-0.001,0-0.001,0.001-0.002,0.001c-0.004,0.002-0.008,0.005-0.012,0.008L19.956,7.25c-0.004,0.003-0.009,0.006-0.014,0.008
		L19.941,7.26c-0.01,0.006-0.02,0.012-0.029,0.018c-0.001,0-0.002,0.001-0.003,0.001c-0.004,0.003-0.007,0.005-0.012,0.007
		c-0.002,0.001-0.001,0.001-0.003,0.002c-0.004,0.002-0.008,0.005-0.012,0.007c-0.001,0-0.002,0.001-0.003,0.002
		c-0.01,0.006-0.02,0.012-0.029,0.018c-0.001,0-0.003,0.002-0.004,0.002c-0.003,0.002-0.007,0.004-0.01,0.006
		c-0.002,0.001-0.003,0.001-0.005,0.003c-0.003,0.002-0.006,0.004-0.01,0.006c-0.001,0.001-0.004,0.002-0.005,0.003
		c-0.004,0.002-0.008,0.005-0.012,0.007c-0.001,0.001-0.001,0.001-0.002,0.001c-0.005,0.003-0.009,0.006-0.014,0.009
		c-0.002,0.001-0.002,0.001-0.004,0.002c-0.003,0.002-0.007,0.004-0.01,0.006c-0.001,0-0.004,0.002-0.005,0.003
		c-0.003,0.002-0.006,0.004-0.01,0.006c-0.001,0-0.003,0.002-0.005,0.003c-0.003,0.002-0.007,0.004-0.011,0.007
		c-0.001,0-0.002,0.001-0.003,0.002c-0.004,0.003-0.009,0.006-0.014,0.009c-0.001,0-0.003,0.002-0.004,0.002
		c-0.003,0.002-0.007,0.004-0.01,0.006c-0.001,0-0.004,0.002-0.005,0.003c-0.003,0.002-0.006,0.004-0.009,0.006
		c-0.002,0.001-0.003,0.002-0.005,0.003c-0.003,0.002-0.007,0.004-0.01,0.006c-0.002,0.001-0.001,0.001-0.004,0.002
		c-0.004,0.002-0.009,0.005-0.014,0.008c-0.001,0.001-0.001,0.001-0.002,0.002c-0.004,0.002-0.008,0.005-0.012,0.007
		c-0.001,0-0.003,0.002-0.004,0.002c-0.003,0.002-0.006,0.004-0.009,0.006c-0.002,0.001-0.003,0.002-0.005,0.004
		c-0.003,0.001-0.006,0.003-0.009,0.005c-0.002,0.001-0.003,0.002-0.005,0.003c-0.003,0.002-0.007,0.004-0.01,0.006
		c-0.002,0.001-0.004,0.002-0.006,0.004c-0.004,0.002-0.007,0.004-0.011,0.007c-0.002,0.001-0.004,0.002-0.006,0.003
		c-0.003,0.002-0.005,0.003-0.008,0.005S19.572,7.488,19.57,7.49c-0.002,0.001-0.005,0.003-0.008,0.005
		c-0.002,0.001-0.004,0.002-0.006,0.004C19.553,7.5,19.55,7.502,19.547,7.504c-0.002,0.001-0.004,0.003-0.006,0.004
		c-0.004,0.002-0.008,0.005-0.012,0.008c-0.002,0.001-0.004,0.002-0.006,0.003c-0.002,0.002-0.005,0.003-0.008,0.005
		c-0.002,0.001-0.005,0.003-0.007,0.004c-0.002,0.001-0.005,0.003-0.007,0.005c-0.002,0.001-0.004,0.003-0.007,0.004
		c-0.002,0.001-0.004,0.003-0.006,0.004c-0.003,0.002-0.006,0.004-0.009,0.006c-0.003,0.002-0.007,0.004-0.011,0.007
		c-0.002,0.001-0.004,0.002-0.006,0.004c-0.002,0.001-0.005,0.003-0.007,0.005c-0.002,0.001-0.005,0.003-0.008,0.004
		c-0.002,0.001-0.004,0.002-0.006,0.004c-0.002,0.001-0.006,0.003-0.008,0.005c-0.002,0.001-0.003,0.002-0.005,0.003
		c-0.01,0.006-0.019,0.012-0.029,0.019c-0.001,0.001-0.003,0.002-0.004,0.003c-0.003,0.002-0.006,0.003-0.009,0.005
		c-0.002,0.001-0.003,0.002-0.005,0.003c-0.002,0.001-0.006,0.004-0.008,0.005c-0.001,0.001-0.003,0.002-0.004,0.003
		c-0.003,0.002-0.006,0.004-0.009,0.006c0,0-0.001,0.001-0.002,0.001c-0.006,0.004-0.014,0.009-0.02,0.013
		c-0.001,0-0.002,0.001-0.003,0.002c-0.003,0.002-0.006,0.004-0.009,0.006c-0.001,0.001-0.003,0.002-0.005,0.003
		c-0.002,0.001-0.006,0.004-0.008,0.005c-0.001,0.001-0.003,0.002-0.005,0.003c-0.003,0.002-0.006,0.004-0.009,0.006
		c-0.001,0-0.001,0.001-0.002,0.002c-0.01,0.006-0.021,0.013-0.031,0.02c-0.001,0.001-0.003,0.002-0.005,0.003
		c-0.002,0.001-0.007,0.004-0.009,0.006c-0.001,0-0.003,0.001-0.004,0.002c-0.003,0.002-0.007,0.004-0.01,0.006
		c-0.001,0.001-0.002,0.001-0.002,0.002C19.222,7.71,19.21,7.718,19.2,7.725c-0.001,0-0.002,0.001-0.003,0.002
		c-0.003,0.002-0.007,0.004-0.01,0.006c-0.001,0.001-0.002,0.001-0.003,0.002c-0.003,0.002-0.007,0.004-0.01,0.006
		c-0.001,0-0.002,0.001-0.002,0.001c-0.011,0.007-0.024,0.016-0.035,0.022v0c-0.004,0.002-0.008,0.005-0.012,0.007c0,0,0,0-0.001,0
		c-0.004,0.003-0.007,0.005-0.011,0.007c0,0-0.001,0.001-0.001,0.001c-0.016,0.011-0.03,0.02-0.046,0.03
		c-0.001,0-0.001,0.001-0.002,0.001c-0.004,0.002-0.007,0.004-0.011,0.007c0,0,0,0,0,0c-1.51,0.982-2.946,2.064-4.3,3.241
		c-0.479,0.418-0.53,1.145-0.113,1.625c0.228,0.263,0.549,0.397,0.871,0.397c0.268,0,0.538-0.093,0.755-0.282
		c2.188-1.899,4.597-3.535,7.162-4.862c0.565-0.292,0.787-0.988,0.495-1.554C23.715,5.991,23.312,5.764,22.895,5.764L22.895,5.764z
		 M9.505,17.39c-0.359,0-0.713,0.168-0.938,0.482c-1.453,2.041-2.713,4.229-3.754,6.537c0,0,0,0.001,0,0.001
		c-0.002,0.005-0.003,0.009-0.005,0.013c0,0,0,0.001,0,0.001c-0.008,0.018-0.015,0.033-0.023,0.052c0,0.001,0,0.002-0.001,0.002
		c-0.002,0.005-0.003,0.008-0.005,0.012c0,0.001,0,0.002,0,0.002c-0.008,0.019-0.015,0.033-0.023,0.052c0,0,0,0.001-0.001,0.002
		c-0.002,0.004-0.003,0.007-0.005,0.011c0,0.002-0.001,0.003-0.001,0.004c-0.002,0.003-0.003,0.008-0.005,0.011
		c0,0.001-0.001,0.002-0.001,0.003c-0.005,0.013-0.011,0.025-0.017,0.037c0,0.001,0,0.001,0,0.001
		c-0.002,0.005-0.003,0.008-0.005,0.012c0,0.001-0.001,0.002-0.001,0.003c-0.002,0.005-0.003,0.007-0.005,0.011
		c0,0.002-0.001,0.003-0.002,0.004c-0.005,0.012-0.01,0.024-0.015,0.035c0,0.001-0.001,0.002-0.001,0.003
		c-0.001,0.004-0.003,0.007-0.004,0.01c-0.001,0.002-0.001,0.004-0.002,0.006s-0.003,0.007-0.004,0.009s-0.001,0.004-0.002,0.006
		c-0.001,0.003-0.002,0.006-0.004,0.009c-0.001,0.002-0.002,0.004-0.002,0.006c-0.003,0.007-0.005,0.012-0.008,0.019
		c-0.001,0.002-0.001,0.003-0.002,0.004c-0.001,0.004-0.002,0.006-0.004,0.01c-0.001,0.002-0.001,0.003-0.002,0.005
		c-0.001,0.003-0.003,0.007-0.004,0.009s-0.002,0.005-0.003,0.007c-0.001,0.004-0.002,0.005-0.003,0.009
		c-0.001,0.002-0.002,0.005-0.003,0.007S4.641,24.797,4.64,24.8c-0.002,0.004-0.004,0.009-0.006,0.014
		c-0.001,0.002-0.002,0.005-0.003,0.007c-0.001,0.003-0.002,0.006-0.003,0.009c-0.001,0.002-0.002,0.005-0.003,0.007
		c-0.001,0.003-0.002,0.005-0.003,0.008c-0.001,0.002-0.002,0.006-0.003,0.008s-0.002,0.005-0.003,0.008
		c-0.001,0.002-0.002,0.005-0.003,0.007c-0.001,0.003-0.002,0.005-0.003,0.008c-0.002,0.004-0.004,0.009-0.006,0.014
		c-0.001,0.003-0.002,0.005-0.003,0.008c-0.001,0.002-0.002,0.005-0.003,0.007c-0.001,0.003-0.003,0.006-0.004,0.009
		c-0.001,0.002-0.002,0.005-0.003,0.007c-0.001,0.003-0.003,0.006-0.004,0.009c-0.001,0.002-0.002,0.004-0.003,0.006
		c-0.001,0.004-0.003,0.008-0.004,0.012c0,0.001-0.001,0.003-0.002,0.004c-0.002,0.005-0.004,0.01-0.006,0.015
		c-0.001,0.003-0.001,0.003-0.002,0.005c-0.001,0.004-0.003,0.008-0.005,0.011c-0.001,0.002-0.001,0.003-0.002,0.006
		c-0.001,0.003-0.003,0.007-0.004,0.011c0,0.001-0.001,0.003-0.002,0.004c-0.002,0.005-0.004,0.009-0.006,0.014
		c0,0.001,0,0.001-0.001,0.002C4.544,25.02,4.542,25.025,4.54,25.03c0,0.002,0,0.001,0,0.002c-0.002,0.005-0.004,0.009-0.006,0.014
		c0,0.001-0.001,0.003-0.002,0.004c-0.002,0.005-0.003,0.009-0.005,0.013c0,0.001-0.001,0.002-0.001,0.003
		c-0.002,0.005-0.004,0.01-0.006,0.014l-0.001,0.002c-0.004,0.011-0.009,0.021-0.014,0.032l0,0.002
		c-0.002,0.005-0.004,0.01-0.006,0.015l-0.001,0.002c-0.002,0.005-0.004,0.01-0.006,0.014c0,0.002,0,0.002-0.001,0.003
		c-0.007,0.017-0.014,0.032-0.021,0.049v0.001c-0.002,0.005-0.004,0.011-0.007,0.016c0,0.001,0,0,0,0.001
		c-0.007,0.017-0.014,0.033-0.021,0.05l0,0c-0.002,0.006-0.004,0.011-0.007,0.017h0c-0.094,0.223-0.186,0.447-0.275,0.672
		c-0.236,0.591,0.052,1.262,0.644,1.498c0.14,0.057,0.285,0.083,0.427,0.083c0.458,0,0.891-0.275,1.071-0.727
		c1.071-2.68,2.465-5.235,4.145-7.596c0.369-0.519,0.248-1.238-0.271-1.608C9.97,17.46,9.737,17.39,9.505,17.39L9.505,17.39z
		 M2.933,33.854c-0.564,0-1.057,0.414-1.14,0.988c-0.103,0.729-0.185,1.463-0.247,2.204l0,0c-0.003,0.036-0.006,0.071-0.009,0.107
		l0,0c-0.003,0.036-0.005,0.07-0.008,0.106c0,0,0,0.001,0,0.002c-0.002,0.021-0.003,0.038-0.005,0.059c0,0.001,0,0.003,0,0.004
		c-0.001,0.015-0.002,0.029-0.003,0.043c0,0,0,0.001,0,0.002c0,0.005,0,0.009-0.001,0.014c0,0.001,0,0.001,0,0.002
		c-0.001,0.016-0.002,0.028-0.003,0.044c0,0.001,0,0.002,0,0.002c-0.001,0.016-0.002,0.028-0.003,0.044c0,0.001,0,0.001,0,0.002
		c0,0.005-0.001,0.009-0.001,0.014c0,0.001,0,0.002,0,0.003c-0.001,0.015-0.002,0.027-0.003,0.043c0,0.001,0,0.001,0,0.003
		c-0.001,0.015-0.002,0.028-0.003,0.043c0,0.001,0,0.001,0,0.002c0,0.005,0,0.009-0.001,0.014c0,0.001,0,0.002,0,0.003
		c-0.001,0.013-0.002,0.029-0.003,0.043c0,0.001,0,0.002,0,0.003c0,0.005-0.001,0.008-0.001,0.014c0,0.001,0,0.002,0,0.003
		c0,0.008-0.001,0.018-0.001,0.025c0,0.001,0,0.002,0,0.003c0,0.004,0,0.009,0,0.013c0,0.002,0,0.004,0,0.005
		c-0.001,0.013-0.002,0.027-0.002,0.04c0,0.002,0,0.004,0,0.006c0,0.005,0,0.007-0.001,0.012c0,0.002,0,0.004,0,0.006
		c0,0.009-0.001,0.016-0.001,0.024c0,0.001,0,0.002,0,0.002c0,0.004,0,0.008-0.001,0.012c0,0.003,0,0.005,0,0.008
		c0,0.004,0,0.007,0,0.011c0,0.002,0,0.004,0,0.006c0,0.008-0.001,0.014-0.001,0.021c0,0.002,0,0.004,0,0.006
		c0,0.004,0,0.008-0.001,0.011c0,0.003,0,0.005,0,0.007c0,0.013-0.001,0.026-0.002,0.039c0,0.002,0,0.004,0,0.006
		c0,0.004,0,0.008-0.001,0.012c0,0.002,0,0.004,0,0.006c0,0.008-0.001,0.014-0.001,0.021c0,0.002,0,0.004,0,0.006
		c0,0.004,0,0.008,0,0.012c0,0.002,0,0.004,0,0.007c0,0.004,0,0.007,0,0.011c0,0.003,0,0.005,0,0.008c0,0.007,0,0.012-0.001,0.019
		c0,0.002,0,0.005,0,0.008c0,0.002,0,0.008,0,0.01c0,0.003,0,0.006,0,0.009c0,0.006-0.001,0.01-0.001,0.017c0,0.003,0,0.006,0,0.009
		c0,0.004,0,0.007-0.001,0.011c0,0.003,0,0.006,0,0.009c0,0.004,0,0.006,0,0.01c0,0.003,0,0.007,0,0.01c0,0.006,0,0.01-0.001,0.015
		c0,0.004,0,0.007,0,0.01c0,0.003,0,0.008,0,0.01c0,0.003,0,0.007,0,0.01c0,0.002,0,0.006,0,0.009c0,0.006,0,0.011-0.001,0.017
		c0,0.003,0,0.006,0,0.009c0,0.003,0,0.007,0,0.01c0,0.003,0,0.007,0,0.01c0,0.003,0,0.006,0,0.01c0,0.005,0,0.009,0,0.015
		c0,0.003,0,0.007,0,0.011c0,0.004,0,0.005-0.001,0.009c0,0.003,0,0.007,0,0.01c0,0.004,0,0.005-0.001,0.009
		c0,0.006,0,0.012,0,0.017c0,0.003,0,0.006,0,0.008c0,0.004,0,0.008,0,0.012c0,0.002,0,0.006,0,0.009s0,0.007,0,0.011
		c0,0.002,0,0.005,0,0.008c0,0.006,0,0.011-0.001,0.017c0,0.003,0,0.006,0,0.008c0,0.004,0,0.008,0,0.012c0,0.003,0,0.005,0,0.008
		c0,0.005,0,0.009-0.001,0.014c0,0.004,0,0.007,0,0.011s0,0.008,0,0.012c0,0.003,0,0.006,0,0.008c0,0.004,0,0.008,0,0.012
		c0,0.003,0,0.005,0,0.008c0,0.006,0,0.012,0,0.017c0,0.003,0,0.006,0,0.009c0,0.003,0,0.007,0,0.011c0,0.002,0,0.006,0,0.009
		c0,0.004,0,0.008,0,0.012s0,0.007,0,0.011c0,0.005,0,0.009,0,0.013c0,0.003,0,0.006,0,0.009c0,0.004,0,0.007,0,0.011
		c0,0.003,0,0.005,0,0.008c0,0.006,0,0.012,0,0.018c0,0.002,0,0.005,0,0.008s0,0.007,0,0.011c0,0.003,0,0.006,0,0.009
		c0,0.004,0,0.008,0,0.012c0,0.003,0,0.004,0,0.007c0,0.006,0,0.012-0.001,0.018c0,0.002,0,0.005,0,0.008c0,0.004,0,0.008,0,0.011
		c0,0.003,0,0.006,0,0.009c0,0.006,0,0.012-0.001,0.018c0,0.001,0,0.004,0,0.005c0,0.005,0,0.009,0,0.014c0,0.002,0,0.005,0,0.008
		c0,0.004,0,0.008,0,0.012c0,0.003,0,0.005,0,0.007c0,0.006,0,0.012,0,0.018c0,0.003,0,0.005,0,0.008c0,0.004,0,0.008,0,0.012
		c0,0.003,0,0.005,0,0.008c0,0.005,0,0.01,0,0.015c0,0.002,0,0.005,0,0.007c0,0.005,0,0.011,0,0.016c0,0.002,0,0.004,0,0.007
		c0,0.004,0,0.008,0,0.013c0,0.002,0,0.004,0,0.007c0,0.006,0,0.012,0,0.018c0,0.003,0,0.004,0,0.007c0,0.004,0,0.008,0,0.012
		c0,0.003,0,0.006,0,0.009c0,0.004,0,0.008,0,0.013c0,0.002,0,0.003,0,0.006c0,0.006,0,0.012,0,0.018c0,0.004,0,0.004,0,0.008
		c0,0.004,0,0.008,0,0.012c0,0.001,0,0.006,0,0.007c0,0.006,0,0.013,0,0.019c0,0.002,0,0.003,0,0.006c0,0.004,0,0.009,0,0.013
		c0,0.003,0,0.005,0,0.008c0,0.004,0,0.009,0,0.013c0,0.003,0,0.004,0,0.007c0,0.006,0,0.012-0.001,0.018c0,0.003,0,0.004,0,0.006
		c0,0.005,0,0.01,0,0.014c0,0.003,0,0.004,0,0.007c0,0.006,0,0.011,0,0.017c0,0.002,0,0.004,0,0.005c0,0.005,0,0.011,0,0.016
		c0,0.003,0,0.005,0,0.008c0,0.004,0,0.008,0,0.012c0,0.003,0,0.005,0,0.007c0,0.006,0,0.012,0,0.018c0,0.003,0,0.004,0,0.007
		c0,0.005,0,0.009,0,0.014c0,0.002,0,0.004,0,0.007c0,0.005,0,0.01,0,0.015c0,0.001,0,0.003,0,0.004c0,0.007,0,0.013,0,0.019
		c0,0.001,0,0.005,0,0.007c0,0.004,0,0.009,0,0.013c0,0.002,0,0.006,0,0.007c0,0.006,0,0.012,0,0.019c0,0.001,0,0.003,0,0.005
		c0,0.004,0,0.009,0,0.014c0,0.003,0,0.005,0,0.007c0,0.005,0,0.01,0,0.015c0,0.002,0,0.002,0,0.005c0,0.006,0,0.013,0,0.019
		c0,0.001,0,0.004,0,0.006c0,0.005,0,0.009,0,0.014c0,0.002,0,0.005,0,0.006c0,0.006,0,0.012,0,0.018c0,0.002,0,0.004,0,0.005
		c0,0.006,0,0.011,0,0.016c0,0.003,0,0.004,0,0.007c0,0.005,0,0.009,0,0.014c0,0.003,0,0.003,0,0.006c0,0.006,0,0.013,0,0.019
		c0,0.002,0,0.003,0,0.006c0,0.004,0,0.009,0,0.014c0,0.002,0,0.004,0,0.007c0,0.005,0,0.01,0,0.015c0,0.001,0,0.003,0,0.005
		c0,0.006,0,0.012,0,0.018c0,0.001,0,0.006,0,0.007c0,0.004,0,0.009,0,0.014c0,0.001,0,0.004,0,0.006c0,0.006,0,0.012,0,0.019
		c0,0.001,0,0.004,0,0.005c0,0.005,0,0.01,0,0.015c0,0.002,0,0.004,0,0.006c0,0.005,0,0.01,0,0.015c0,0.001,0,0.004,0,0.005
		c0,0.007,0,0.013,0,0.019c0,0.001,0,0.005,0,0.007c0,0.004,0,0.009,0,0.013c0,0.002,0,0.006,0,0.007c0,0.006,0,0.012,0,0.018
		c0,0.002,0,0.004,0,0.005c0,0.005,0,0.01,0,0.016c0,0.002,0,0.004,0,0.007c0,0.004,0,0.009,0,0.014c0,0.003,0,0.002,0,0.005
		c0,0.006,0,0.013,0,0.019c0,0.003,0,0.003,0,0.006c0,0.005,0,0.01,0,0.014c0,0.003,0,0.004,0,0.007c0,0.006,0,0.012,0,0.018v0.001
		c0,0.007,0,0.013,0,0.02c0,0.001,0,0.005,0,0.006c0,0.005,0,0.01,0,0.015c0,0.001,0,0.004,0,0.005c0,0.007,0,0.013,0,0.02
		c0,0.001,0,0.002,0,0.004c0,0.005,0,0.01,0,0.016c0,0.002,0,0.003,0,0.006c0,0.005,0,0.01,0,0.015c0,0.002,0,0.004,0,0.005
		c0,0.006,0,0.013,0,0.019c0,0.002,0,0.005,0,0.006c0,0.005,0,0.01,0,0.015c0,0.001,0,0.004,0,0.006c0,0.006,0,0.012,0,0.019
		c0,0.001,0,0.002,0,0.003c0,0.006,0,0.011,0,0.017c0,0.002,0,0.004,0,0.006c0,0.005,0,0.01,0,0.015c0,0.002,0,0.003,0,0.005
		c0,0.007,0,0.013,0,0.019c0,0.003,0,0.003,0,0.006c0,0.005,0,0.01,0,0.015c0,0.001,0,0.005,0,0.006c0,0.006,0,0.012,0,0.019l0,0
		c0,0.007,0,0.014,0,0.02c0,0.002,0,0.004,0,0.006c0,0.005,0,0.01,0,0.016c0,0.001,0,0.003,0,0.004c0,0.007,0,0.013,0,0.02
		c0,0.001,0,0.002,0,0.004c0,0.005,0,0.011,0,0.016c0,0.003,0,0.003,0,0.006c0,0.005,0,0.011,0,0.016c0,0.002,0,0.003,0,0.004
		c0,0.007,0,0.013,0,0.02c0,0.001,0,0.004,0,0.005c0,0.005,0,0.01,0,0.015c0,0.002,0,0.004,0,0.006c0,0.006,0,0.013,0,0.019
		c0,0.002,0,0.003,0,0.004c0,0.005,0,0.011,0,0.016c0,0.003,0,0.004,0,0.006c0,0.006,0,0.011,0,0.016c0,0.001,0,0.003,0,0.004
		c0,0.007,0,0.013,0,0.02c0,0.001,0,0.004,0,0.005c0,0.005,0,0.01,0,0.015c0,0.002,0,0.005,0,0.006c0,0.007,0,0.013,0,0.02l0,0l0,0
		c0,0.005,0,0.01,0,0.016c0,0.001,0,0.002,0,0.004c0,0.004,0,0.007,0,0.011c0,0.002,0,0.004,0,0.006c0,0.004,0,0.006,0,0.01
		c0,0.002,0,0.004,0,0.006c0,0.004,0,0.006,0,0.01c0,0.002,0,0.004,0,0.006c0,0.004,0,0.005,0,0.009c0,0.002,0,0.004,0,0.007
		c0,0.002,0,0.006,0,0.009c0,0.002,0,0.004,0,0.006c0,0.003,0,0.007,0,0.01c0,0.002,0,0.004,0,0.006s0,0.006,0,0.009
		c0,0.002,0,0.005,0,0.007c0,0.003,0,0.006,0,0.009c0,0.002,0,0.004,0,0.007c0,0.002,0,0.006,0,0.008c0,0.003,0,0.005,0,0.007
		c0,0.003,0,0.006,0,0.009c0,0.002,0,0.005,0,0.007s0,0.006,0,0.009c0,0.002,0,0.004,0,0.007c0,0.002,0,0.006,0,0.009
		c0,0.002,0,0.004,0,0.006c0,0.004,0,0.005,0,0.009c0,0.002,0,0.005,0,0.007c0,0.004,0,0.006,0,0.01c0,0.002,0,0.003,0,0.005
		c0,0.004,0,0.006,0,0.01c0,0.002,0,0.004,0,0.006c0,0.004,0,0.006,0,0.01c0,0.002,0,0.004,0,0.006c0,0.005,0,0.01,0,0.015
		c0,0.001,0,0.003,0,0.004c0,0.004,0,0.008,0,0.012c0,0.001,0,0.003,0,0.004c0,0.004,0,0.007,0,0.011c0,0.002,0,0.004,0,0.007
		c0,0.004,0,0.005,0,0.009c0,0.002,0,0.004,0,0.006c0,0.004,0,0.006,0,0.01c0,0.002,0,0.004,0,0.006c0,0.003,0,0.007,0,0.009
		c0,0.003,0,0.005,0,0.007c0,0.003,0,0.006,0,0.009c0,0.002,0,0.004,0,0.007s0,0.006,0,0.008c0,0.003,0,0.005,0,0.007
		c0,0.003,0,0.006,0,0.009c0,0.002,0,0.004,0,0.007c0,0.002,0,0.006,0,0.009c0,0.002,0,0.004,0,0.006c0,0.003,0,0.006,0,0.009
		c0,0.002,0,0.005,0,0.007c0,0.003,0,0.007,0,0.01c0,0.002,0,0.003,0,0.005c0,0.004,0,0.007,0,0.011c0,0.002,0,0.003,0,0.005
		c0,0.004,0,0.007,0,0.011c0,0.002,0,0.003,0,0.004c0,0.004,0,0.007,0,0.011c0,0.002,0,0.004,0,0.005c0,0.004,0,0.008,0,0.012
		c0,0.001,0,0.002,0,0.004c0,0.005,0,0.008,0,0.014v0.001c0,0.011,0,0.021,0,0.031c0,0.001,0,0.001,0,0.002c0,0.005,0,0.009,0,0.014
		c0,0.001,0,0.002,0,0.003c0,0.004,0,0.009,0,0.013c0,0.001,0,0.002,0,0.004c0,0.004,0,0.007,0,0.011c0,0.002,0,0.004,0,0.006
		s0,0.007,0,0.009s0,0.004,0,0.007c0,0.004,0,0.005,0,0.009c0,0.002,0,0.004,0,0.005c0,0.003,0,0.008,0,0.011
		c0,0.002,0,0.004,0,0.005c0,0.003,0,0.008,0,0.011c0,0.001,0,0.003,0,0.005c0,0.003,0,0.007,0,0.01c0,0.002,0,0.004,0,0.006
		c0,0.003,0,0.008,0,0.01s0,0.003,0,0.005c0,0.004,0,0.007,0,0.011c0,0.002,0,0.003,0,0.005c0,0.004,0,0.007,0,0.011
		c0,0.001,0,0.003,0,0.005c0,0.003,0,0.006,0,0.01c0,0.002,0,0.004,0,0.005c0,0.004,0,0.009,0,0.013c0,0.001,0,0.002,0,0.002
		c0,0.006,0,0.009,0,0.014c0,0.001,0,0.002,0,0.002c0,0.026,0.001,0.052,0.001,0.077c0,0.001,0,0.002,0,0.002
		c0,0.006,0,0.008,0,0.014c0,0.001,0,0.002,0,0.003c0,0.004,0,0.009,0,0.013c0,0.001,0,0.002,0,0.002c0,0.006,0,0.008,0,0.013
		c0,0.002,0,0.003,0,0.004c0,0.004,0,0.008,0,0.012c0,0.001,0,0.003,0,0.004c0,0.003,0,0.009,0,0.011s0,0.003,0,0.005
		c0,0.004,0,0.008,0,0.012c0,0.001,0,0.002,0,0.003c0,0.004,0,0.008,0,0.012c0,0.001,0,0.003,0,0.004c0,0.004,0,0.007,0,0.011
		c0,0.002,0,0.004,0,0.005c0,0.004,0,0.007,0,0.011c0,0.002,0,0.003,0,0.005c0,0.004,0,0.008,0,0.012c0,0.001,0,0.002,0,0.003
		c0,0.004,0,0.009,0,0.013c0,0.001,0,0.002,0,0.003c0,0.005,0,0.008,0,0.014v0.001c0.001,0.026,0.001,0.052,0.002,0.078l0,0
		c0,0.005,0,0.01,0,0.015c0,0.001,0,0.002,0,0.002c0,0.006,0,0.009,0,0.014c0,0.001,0,0.001,0,0.002c0,0.005,0,0.009,0,0.014
		c0,0,0,0.001,0,0.002c0,0.005,0,0.008,0,0.013c0,0.001,0,0.002,0,0.003c0,0.006,0,0.008,0,0.013c0,0.001,0,0.002,0,0.003
		c0,0.005,0,0.007,0,0.012c0,0.002,0,0.003,0,0.004c0,0.003,0,0.009,0,0.012c0,0.001,0,0.003,0,0.004c0,0.004,0,0.008,0,0.012
		c0,0.001,0,0.002,0,0.004c0,0.004,0,0.007,0,0.011c0,0.002,0,0.003,0,0.004c0,0.004,0,0.009,0,0.013c0,0.001,0,0.002,0,0.003
		c0,0.005,0,0.009,0.001,0.014v0.001c0,0.005,0,0.009,0,0.015c0,0,0,0,0,0.001c0.001,0.041,0.002,0.082,0.004,0.123
		c0,0.001,0,0.001,0,0.002c0,0.005,0,0.009,0,0.014c0,0.001,0,0.001,0,0.002c0,0.005,0,0.008,0,0.014c0,0,0,0.001,0,0.002
		c0,0.006,0,0.008,0,0.013c0,0.001,0,0.002,0,0.003c0,0.004,0,0.008,0,0.012c0,0.002,0,0.003,0,0.004c0,0.006,0,0.007,0,0.012
		c0,0.002,0,0.003,0,0.004c0,0.005,0,0.008,0,0.013c0,0.001,0,0.001,0,0.002c0,0.005,0,0.009,0,0.014c0,0.001,0,0.001,0,0.002
		c0,0.005,0,0.009,0,0.014v0.001c0,0.006,0,0.01,0,0.015v0.001C1.444,41.917,1.446,41.958,1.448,42l0,0c0,0.005,0,0.01,0,0.015
		c0,0.001,0,0.001,0,0.001c0,0.006,0,0.01,0.001,0.015c0,0,0,0.001,0,0.002c0,0.005,0,0.008,0,0.013c0,0.001,0,0.002,0,0.003
		c0,0.005,0,0.008,0,0.013c0,0.001,0,0.002,0,0.002c0,0.005,0,0.009,0,0.015c0,0,0,0,0,0.001c0,0.005,0,0.01,0,0.015l0,0
		c0,0.005,0,0.01,0.001,0.016l0,0c0.002,0.057,0.005,0.113,0.008,0.17l0,0c0,0.006,0,0.01,0,0.015c0,0.001,0,0.001,0,0.002
		c0,0.005,0,0.009,0.001,0.015l0,0c0,0.006,0,0.01,0,0.015c0,0.001,0,0.001,0,0.001c0,0.006,0,0.009,0.001,0.015v0.001
		c0,0.006,0,0.009,0.001,0.015c0,0,0,0,0,0.001c0.004,0.082,0.009,0.164,0.014,0.246l0,0c0.011,0.186,0.023,0.37,0.036,0.555l0,0
		c0.005,0.072,0.011,0.144,0.017,0.215v0.001c0,0.005,0,0.009,0.001,0.015c0,0,0,0,0,0.001c0,0.005,0.001,0.009,0.001,0.014
		c0,0.001,0,0.001,0,0.002c0,0.005,0,0.008,0.001,0.014c0,0,0,0.001,0,0.002c0,0.005,0.001,0.008,0.001,0.013
		c0,0.001,0,0.002,0,0.002c0,0.006,0,0.008,0.001,0.014c0,0,0,0.001,0,0.002c0,0.005,0.001,0.008,0.001,0.013
		c0,0.001,0,0.002,0,0.002c0,0.006,0,0.01,0.001,0.015c0,0,0,0,0,0.001c0.003,0.035,0.006,0.071,0.009,0.106v0.001
		c0,0.005,0,0.009,0.001,0.014c0,0.001,0,0.002,0,0.003c0,0.005,0.001,0.007,0.001,0.013c0,0.001,0,0.002,0,0.004
		c0,0.004,0.001,0.007,0.001,0.011c0,0.001,0,0.003,0,0.004c0,0.003,0,0.008,0.001,0.011c0,0.002,0,0.004,0,0.006
		c0,0.002,0,0.006,0,0.009c0,0.002,0,0.004,0,0.006c0,0.003,0.001,0.007,0.001,0.009s0,0.004,0,0.007c0,0.002,0,0.006,0.001,0.009
		c0,0.002,0,0.004,0,0.005c0,0.003,0,0.008,0,0.01c0,0.002,0,0.004,0,0.006c0,0.003,0.001,0.007,0.001,0.01c0,0.002,0,0.003,0,0.005
		c0,0.004,0,0.006,0.001,0.01c0,0.002,0,0.004,0,0.006c0,0.004,0,0.005,0,0.009c0,0.002,0,0.004,0.001,0.006
		c0,0.004,0,0.005,0,0.009c0,0.002,0,0.005,0,0.007c0,0.004,0,0.005,0.001,0.009c0,0.002,0,0.004,0,0.006
		c0,0.004,0.001,0.009,0.001,0.013c0,0,0,0.001,0,0.002c0,0.005,0.001,0.01,0.001,0.016c0,0,0,0.001,0,0.001
		c0,0.006,0,0.008,0.001,0.014c0,0.002,0,0.004,0,0.006c0,0.004,0,0.005,0.001,0.009c0,0.002,0,0.004,0,0.007
		c0,0.004,0,0.004,0.001,0.008c0,0.003,0,0.005,0,0.008c0,0.001,0,0.006,0,0.007c0,0.003,0,0.006,0.001,0.009
		c0,0.001,0,0.004,0,0.006c0,0.003,0,0.006,0.001,0.009c0,0.002,0,0.005,0,0.006c0,0.003,0,0.006,0.001,0.009
		c0,0.003,0,0.003,0,0.006c0,0.003,0,0.006,0.001,0.01c0,0.002,0,0.003,0,0.005c0,0.004,0,0.007,0,0.01c0,0.003,0,0.002,0,0.005
		c0,0.003,0.001,0.007,0.001,0.01c0,0.002,0,0.003,0,0.005c0,0.003,0,0.007,0.001,0.011c0,0.001,0,0.002,0,0.004
		c0,0.003,0,0.007,0.001,0.011c0,0.001,0,0.002,0,0.003c0,0.004,0,0.008,0.001,0.012v0.002c0,0.004,0.001,0.009,0.001,0.013v0.001
		c0.001,0.01,0.002,0.019,0.002,0.028c0.058,0.597,0.56,1.043,1.146,1.043c0.037,0,0.074-0.002,0.112-0.006
		c0.634-0.061,1.098-0.624,1.038-1.258c-0.112-1.163-0.168-2.35-0.168-3.525c0-1.719,0.121-3.445,0.359-5.134
		c0.089-0.63-0.35-1.214-0.981-1.303C3.041,33.857,2.986,33.854,2.933,33.854L2.933,33.854z M4.644,51.506
		c-0.126,0-0.254,0.021-0.379,0.064c-0.601,0.209-0.919,0.866-0.709,1.468C4,54.315,4.509,55.562,5.08,56.773l0,0.001
		c0.002,0.005,0.004,0.01,0.007,0.015l0.001,0.002c0.007,0.016,0.015,0.032,0.022,0.048c0,0.001,0,0,0,0.001
		c0.002,0.005,0.004,0.01,0.007,0.015c0,0.001,0,0.001,0.001,0.002c0.007,0.016,0.015,0.031,0.022,0.047
		c0,0.002,0,0.001,0.001,0.002c0.002,0.005,0.004,0.009,0.006,0.014c0,0.001,0.001,0.002,0.001,0.003
		c0.002,0.005,0.004,0.009,0.006,0.014l0.001,0.002c0.005,0.011,0.01,0.021,0.015,0.031l0,0.002
		c0.002,0.004,0.004,0.009,0.007,0.014c0,0.001,0.001,0.002,0.001,0.003C5.184,56.991,5.186,56.996,5.188,57
		c0,0.001,0.001,0.002,0.001,0.003c0.002,0.005,0.004,0.009,0.007,0.014c0,0.001,0,0.001,0,0.002
		c0.002,0.005,0.005,0.011,0.008,0.016c0,0.001,0,0,0,0.002c0.002,0.004,0.004,0.009,0.006,0.013c0,0.001,0.002,0.004,0.002,0.005
		c0.001,0.004,0.003,0.007,0.005,0.011c0,0.001,0.001,0.003,0.002,0.004c0.002,0.004,0.004,0.009,0.006,0.013l0.001,0.003
		c0.005,0.01,0.01,0.021,0.015,0.03c0,0.001,0.001,0.004,0.002,0.005c0.002,0.003,0.003,0.007,0.005,0.01
		c0.001,0.003,0.001,0.003,0.002,0.006s0.003,0.007,0.005,0.01c0,0.001,0.002,0.004,0.002,0.005
		c0.002,0.004,0.003,0.008,0.005,0.011c0,0.001,0.001,0.004,0.002,0.005c0.002,0.005,0.004,0.009,0.007,0.014
		c0.001,0.002,0.002,0.004,0.003,0.007c0.001,0.003,0.003,0.006,0.004,0.009c0.001,0.002,0.002,0.004,0.003,0.006
		c0.001,0.003,0.003,0.006,0.004,0.009c0.001,0.002,0.002,0.005,0.003,0.007c0.001,0.002,0.003,0.005,0.004,0.008
		c0.001,0.002,0.002,0.005,0.003,0.007c0.002,0.003,0.003,0.007,0.005,0.01s0.004,0.008,0.005,0.012
		c0.001,0.002,0.002,0.004,0.003,0.007c0.002,0.003,0.002,0.005,0.004,0.008c0.001,0.002,0.002,0.004,0.003,0.007
		c0.001,0.002,0.003,0.006,0.004,0.008c0.001,0.003,0.002,0.004,0.003,0.006c0.001,0.004,0.002,0.006,0.004,0.009
		c0.001,0.002,0.002,0.004,0.002,0.006c0.003,0.007,0.006,0.011,0.009,0.018c0.001,0.002,0.001,0.003,0.002,0.005
		c0.001,0.003,0.002,0.005,0.004,0.009c0,0.002,0.001,0.003,0.002,0.005c0.001,0.004,0.003,0.006,0.004,0.009
		c0.001,0.002,0.002,0.004,0.002,0.006c0.002,0.003,0.003,0.006,0.005,0.01c0,0.001,0.001,0.002,0.002,0.003
		c0.005,0.012,0.011,0.022,0.016,0.033c0.001,0.002,0.001,0.003,0.002,0.005c0.001,0.003,0.003,0.007,0.004,0.01
		c0.001,0.001,0.001,0.003,0.002,0.004c0.001,0.004,0.003,0.007,0.005,0.011c0,0.001,0.001,0.002,0.001,0.003
		c0.006,0.012,0.012,0.024,0.019,0.037l0,0c0.002,0.004,0.004,0.008,0.005,0.011c0,0.002,0.001,0.003,0.002,0.004
		c0.002,0.005,0.003,0.006,0.005,0.011c0.001,0.001,0.001,0.002,0.002,0.003c0.001,0.003,0.003,0.008,0.005,0.011
		c0,0.001,0,0.002,0.001,0.003c0.006,0.012,0.013,0.024,0.019,0.036c0,0.001,0,0.001,0,0.001c0.002,0.005,0.003,0.008,0.006,0.012
		c0,0.001,0,0.002,0.001,0.002c0.011,0.022,0.021,0.043,0.032,0.064v0.001c0.636,1.269,1.339,2.497,2.106,3.682
		c0.221,0.34,0.59,0.524,0.967,0.524c0.215,0,0.432-0.061,0.625-0.186c0.535-0.346,0.688-1.06,0.342-1.595
		c-1.574-2.431-2.853-5.046-3.802-7.772C5.567,51.804,5.121,51.506,4.644,51.506L4.644,51.506z M14.271,66.396
		c-0.305,0-0.61,0.12-0.836,0.359c-0.438,0.462-0.419,1.191,0.042,1.63c0.865,0.821,1.767,1.603,2.705,2.341l0,0
		c0.004,0.004,0.009,0.008,0.014,0.012c0.001,0,0-0.001,0,0c0.019,0.015,0.037,0.029,0.056,0.044c0.001,0,0,0,0.001,0.001
		c0.014,0.011,0.027,0.021,0.042,0.032l0.001,0.001c0.004,0.003,0.008,0.006,0.012,0.01c0.001,0,0.001,0.001,0.002,0.002
		c0.004,0.003,0.008,0.006,0.012,0.01h0.001c0.009,0.008,0.019,0.015,0.028,0.021l0.001,0.002c0.004,0.003,0.008,0.006,0.012,0.009
		c0.001,0.001,0.002,0.002,0.003,0.002c0.004,0.003,0.008,0.006,0.011,0.009c0.001,0.001,0.001,0.001,0.002,0.002
		c0.009,0.007,0.018,0.014,0.027,0.021l0.002,0.001c0.004,0.003,0.007,0.006,0.011,0.009c0.002,0.001,0.002,0.002,0.004,0.003
		c0.003,0.003,0.006,0.005,0.01,0.008c0.001,0.001,0.002,0.002,0.003,0.003c0.004,0.003,0.008,0.006,0.011,0.009
		c0.001,0,0.001,0,0.002,0.001c0.004,0.004,0.009,0.007,0.013,0.011c0.002,0.001,0.001,0.001,0.003,0.002
		c0.003,0.003,0.006,0.005,0.01,0.008c0.002,0.001,0.003,0.002,0.005,0.004c0.003,0.002,0.005,0.004,0.008,0.006
		c0.001,0.001,0.004,0.003,0.005,0.004c0.003,0.002,0.006,0.005,0.009,0.007c0.002,0.002,0.002,0.002,0.004,0.004
		c0.004,0.003,0.008,0.006,0.013,0.009c0.002,0.002,0.003,0.003,0.005,0.005c0.002,0.002,0.005,0.004,0.007,0.006
		c0.002,0.001,0.004,0.003,0.006,0.004c0.003,0.002,0.005,0.004,0.008,0.006c0.002,0.002,0.003,0.003,0.005,0.005
		c0.003,0.002,0.005,0.004,0.008,0.006c0.002,0.001,0.003,0.002,0.005,0.004c0.004,0.003,0.008,0.006,0.012,0.01
		c0.001,0,0.003,0.002,0.004,0.003c0.003,0.002,0.006,0.004,0.009,0.007c0.002,0.001,0.004,0.003,0.006,0.004
		c0.002,0.002,0.005,0.004,0.007,0.006s0.004,0.003,0.006,0.005c0.002,0.002,0.005,0.004,0.007,0.005
		c0.001,0.002,0.004,0.004,0.006,0.005c0.002,0.002,0.005,0.004,0.008,0.006c0.004,0.003,0.007,0.005,0.01,0.008
		c0.002,0.002,0.004,0.004,0.006,0.005c0.003,0.003,0.004,0.004,0.007,0.006c0.002,0.002,0.004,0.003,0.006,0.005
		c0.002,0.001,0.005,0.004,0.007,0.005c0.002,0.002,0.004,0.003,0.006,0.005c0.003,0.002,0.004,0.003,0.007,0.005
		c0.002,0.002,0.004,0.003,0.006,0.005c0.005,0.004,0.011,0.008,0.016,0.012c0,0.001,0.001,0.002,0.002,0.002
		c0.003,0.002,0.005,0.004,0.008,0.007c0.001,0.001,0.003,0.002,0.004,0.003c0.002,0.002,0.006,0.005,0.008,0.006
		c0.001,0.002,0.003,0.003,0.005,0.004c0.003,0.002,0.005,0.004,0.008,0.007c0.001,0,0.002,0.001,0.003,0.002
		c0.01,0.007,0.021,0.016,0.03,0.022c0.001,0.001,0.002,0.002,0.004,0.003c0.003,0.002,0.006,0.004,0.009,0.007
		c0.001,0.001,0.002,0.001,0.003,0.002c0.003,0.003,0.006,0.005,0.009,0.008c0.001,0,0.001,0.001,0.002,0.001
		c0.011,0.009,0.021,0.017,0.032,0.024c0,0.001,0,0.001,0.001,0.001c0.004,0.003,0.006,0.005,0.01,0.008
		c0,0.001,0.001,0.001,0.002,0.002c0.004,0.003,0.006,0.005,0.01,0.008c0,0,0.001,0,0.001,0.001c0.016,0.012,0.03,0.021,0.045,0.033
		c0,0.001,0,0.001,0.001,0.001c0.004,0.003,0.007,0.005,0.011,0.008c0,0.001,0,0.001,0,0.001c0.016,0.012,0.03,0.022,0.045,0.034
		c0,0,0.001,0,0.001,0.001c0.004,0.003,0.007,0.005,0.011,0.008l0,0c1.24,0.927,2.538,1.78,3.885,2.556
		c0.18,0.103,0.376,0.151,0.57,0.151c0.399,0,0.787-0.208,1-0.578c0.317-0.553,0.127-1.257-0.425-1.575
		c-2.504-1.439-4.839-3.181-6.939-5.175C14.842,66.501,14.557,66.396,14.271,66.396L14.271,66.396z M29.644,75.228
		c-0.5,0-0.96,0.328-1.107,0.832c-0.177,0.61,0.173,1.249,0.783,1.428c2.05,0.595,4.17,1.024,6.345,1.274c0,0,0,0,0,0
		c0.005,0,0.009,0.001,0.014,0.001c0,0,0.001,0.001,0.002,0.001c0.025,0.003,0.049,0.005,0.075,0.008l0,0
		c0.005,0.001,0.009,0.001,0.014,0.002c0.001,0,0.001,0,0.002,0c0.005,0.001,0.009,0.001,0.014,0.002c0,0,0.001,0,0.001,0
		c0.021,0.002,0.039,0.004,0.059,0.007c0,0,0.001,0,0.001,0c0.004,0,0.009,0.001,0.013,0.001c0.001,0,0.002,0,0.004,0.001
		c0.005,0,0.007,0,0.012,0.001c0.001,0,0.002,0,0.003,0c0.004,0.001,0.009,0.001,0.013,0.002c0,0,0.001,0,0.002,0
		c0.014,0.002,0.028,0.003,0.042,0.005c0.001,0,0.001,0,0.002,0c0.004,0,0.008,0.001,0.012,0.001c0.001,0,0.003,0.001,0.005,0.001
		c0.004,0,0.007,0.001,0.011,0.001c0.001,0,0.003,0,0.005,0.001c0.004,0,0.007,0,0.011,0.001c0.001,0,0.003,0,0.005,0
		c0.013,0.002,0.026,0.003,0.039,0.005c0.001,0,0.002,0,0.003,0c0.004,0,0.006,0.001,0.01,0.001c0.002,0,0.004,0,0.007,0.001
		c0.002,0,0.007,0,0.01,0.001c0.002,0,0.004,0,0.006,0c0.002,0.001,0.007,0.001,0.01,0.001c0.002,0.001,0.004,0.001,0.007,0.001
		c0.004,0.001,0.005,0.001,0.009,0.001c0.003,0,0.006,0.001,0.009,0.001c0.002,0,0.006,0.001,0.009,0.001
		c0.005,0.001,0.009,0.001,0.014,0.002c0.002,0,0.005,0,0.007,0c0.003,0.001,0.006,0.001,0.009,0.001
		c0.002,0.001,0.005,0.001,0.008,0.001c0.003,0,0.006,0.001,0.01,0.001c0.002,0,0.004,0.001,0.006,0.001
		c0.004,0,0.008,0.001,0.011,0.001c0.001,0,0.005,0.001,0.006,0.001c0.004,0,0.009,0.001,0.013,0.001c0.001,0,0.002,0,0.003,0
		c0.006,0.001,0.011,0.001,0.017,0.002c0.001,0,0.003,0,0.004,0.001c0.004,0,0.009,0,0.013,0.001c0.001,0,0.004,0,0.005,0
		c0.004,0.001,0.008,0.001,0.012,0.002c0.002,0,0.003,0,0.006,0c0.004,0.001,0.008,0.001,0.012,0.001
		c0.001,0.001,0.003,0.001,0.004,0.001c0.005,0,0.009,0.001,0.014,0.001l0.003,0.001c0.012,0.001,0.023,0.002,0.035,0.003
		c0.001,0,0.002,0,0.004,0c0.004,0.001,0.009,0.001,0.013,0.002c0.001,0,0.003,0,0.005,0c0.004,0.001,0.008,0.001,0.013,0.002
		c0.001,0,0.003,0,0.005,0c0.004,0,0.009,0.001,0.014,0.001c0.001,0,0.001,0.001,0.003,0.001c0.018,0.001,0.035,0.003,0.053,0.005
		c0.001,0,0.001,0,0.002,0c0.005,0.001,0.01,0.001,0.015,0.001l0.002,0.001c0.005,0,0.011,0.001,0.016,0.001h0.001
		c0.024,0.003,0.048,0.005,0.072,0.007h0.001c0.006,0.001,0.011,0.001,0.017,0.002c0.001,0,0,0,0,0
		c0.03,0.003,0.061,0.006,0.091,0.008l0,0c0.581,0.052,1.167,0.091,1.755,0.116c0.017,0.001,0.034,0.002,0.051,0.002
		c0.613,0,1.124-0.484,1.151-1.103c0.028-0.637-0.465-1.175-1.102-1.203c-2.899-0.127-5.772-0.598-8.54-1.4
		C29.858,75.242,29.75,75.228,29.644,75.228L29.644,75.228z M55.855,73.268c-0.162,0-0.326,0.034-0.483,0.106
		c-2.625,1.212-5.394,2.107-8.231,2.66c-0.625,0.122-1.033,0.728-0.911,1.353c0.107,0.551,0.59,0.933,1.13,0.933
		c0.072,0,0.145-0.007,0.218-0.021c3.065-0.598,6.002-1.558,8.762-2.832c0.577-0.268,0.828-0.952,0.562-1.529
		C56.708,73.516,56.291,73.268,55.855,73.268L55.855,73.268z M69.749,62.246c-0.343,0-0.682,0.152-0.91,0.443
		c-1.78,2.279-3.832,4.348-6.098,6.146c-0.499,0.396-0.582,1.122-0.186,1.62c0.228,0.287,0.564,0.437,0.904,0.437
		c0.251,0,0.504-0.082,0.716-0.25c2.062-1.637,3.953-3.479,5.643-5.496l0,0c0.004-0.005,0.008-0.009,0.011-0.014l0,0
		c0.012-0.014,0.023-0.027,0.034-0.041c0.001-0.001,0.001,0,0.001-0.001c0.003-0.005,0.007-0.009,0.01-0.013
		c0-0.001,0,0,0.001-0.001c0.008-0.01,0.015-0.018,0.022-0.027c0.001-0.001,0,0,0.001-0.001c0.003-0.004,0.006-0.008,0.01-0.012
		c0-0.001,0.002-0.002,0.002-0.003c0.003-0.004,0.006-0.007,0.008-0.01c0.001-0.001,0.002-0.003,0.003-0.004
		c0.003-0.003,0.005-0.006,0.008-0.01c0.001-0.002,0.001-0.002,0.003-0.003c0.003-0.005,0.007-0.009,0.01-0.014
		c0.001,0,0.001,0,0.001-0.001c0.003-0.004,0.006-0.008,0.009-0.011c0-0.001,0.002-0.004,0.003-0.005
		c0.002-0.003,0.005-0.006,0.007-0.009c0.001-0.001,0.002-0.003,0.003-0.004c0.002-0.003,0.005-0.006,0.007-0.009
		c0.001-0.002,0.002-0.003,0.003-0.005c0.003-0.004,0.007-0.008,0.01-0.012c0.001-0.001,0.001-0.002,0.002-0.003
		c0.003-0.003,0.006-0.007,0.009-0.01c0-0.001,0.003-0.004,0.004-0.005c0.002-0.003,0.004-0.005,0.006-0.008
		c0.001-0.002,0.003-0.004,0.005-0.006c0.001-0.002,0.003-0.004,0.005-0.007c0.002-0.002,0.003-0.004,0.006-0.006
		c0.001-0.002,0.003-0.005,0.005-0.006c0.003-0.004,0.007-0.009,0.01-0.013c0.001-0.002,0.003-0.004,0.004-0.006
		c0.002-0.002,0.004-0.004,0.006-0.007c0.001-0.002,0.003-0.004,0.004-0.005c0.002-0.002,0.005-0.006,0.006-0.008
		s0.002-0.003,0.004-0.005c0.002-0.003,0.004-0.005,0.006-0.008c0.001-0.001,0.002-0.002,0.002-0.003
		c0.005-0.007,0.011-0.013,0.016-0.02h0c0.002-0.003,0.005-0.007,0.008-0.01c0-0.001,0.001-0.002,0.002-0.003
		c0.003-0.004,0.004-0.005,0.008-0.009c0-0.001,0.001-0.002,0.002-0.003c0.012-0.015,0.022-0.027,0.034-0.042
		c0-0.001,0.001-0.002,0.002-0.002c0.003-0.004,0.005-0.007,0.008-0.01c0-0.001,0.001-0.001,0.001-0.002
		c0.17-0.208,0.337-0.417,0.502-0.629c0.39-0.502,0.3-1.225-0.201-1.616C70.247,62.325,69.997,62.246,69.749,62.246L69.749,62.246z
		 M77.045,46.091c-0.544,0-1.029,0.388-1.132,0.941c-0.531,2.842-1.404,5.618-2.595,8.252c-0.262,0.58-0.004,1.264,0.576,1.525
		c0.154,0.07,0.315,0.104,0.474,0.104c0.438,0,0.858-0.252,1.051-0.677c1.252-2.771,2.188-5.712,2.762-8.783
		c0.115-0.625-0.297-1.226-0.922-1.343C77.187,46.098,77.116,46.091,77.045,46.091L77.045,46.091z M76.121,28.38
		c-0.109,0-0.221,0.016-0.331,0.049c-0.61,0.182-0.957,0.824-0.775,1.435c0.825,2.762,1.319,5.631,1.469,8.528
		c0.032,0.615,0.541,1.093,1.151,1.093c0.02,0,0.04,0,0.06-0.001c0.636-0.033,1.125-0.575,1.092-1.211
		c-0.079-1.525-0.246-3.027-0.496-4.501c0-0.001,0,0.001,0-0.001c-0.001-0.005-0.002-0.011-0.003-0.016l0-0.002
		c-0.001-0.006-0.002-0.011-0.003-0.017l0,0c-0.003-0.018-0.006-0.035-0.009-0.053c0-0.001,0-0.001,0-0.002
		c0-0.005-0.001-0.01-0.002-0.015l0-0.004c-0.001-0.004-0.001-0.009-0.002-0.013c0-0.002,0-0.003,0-0.005
		c-0.003-0.017-0.006-0.033-0.009-0.051c0-0.001,0-0.002,0-0.003c0-0.004-0.001-0.009-0.002-0.014c0-0.001-0.001-0.003-0.001-0.004
		c-0.001-0.005-0.001-0.009-0.002-0.014c0-0.001,0-0.002,0-0.003c-0.001-0.005-0.001-0.01-0.002-0.015l0-0.003
		c-0.002-0.011-0.004-0.022-0.006-0.033c0-0.002,0-0.003-0.001-0.004c0-0.005-0.001-0.009-0.002-0.014c0-0.001,0-0.003,0-0.004
		c-0.001-0.004-0.001-0.009-0.002-0.013c0-0.001,0-0.003,0-0.005c-0.001-0.004-0.002-0.009-0.002-0.014c0-0.001,0-0.001,0-0.002
		c-0.001-0.006-0.002-0.012-0.003-0.018h0c-0.001-0.006-0.002-0.012-0.003-0.017c0-0.002,0-0.002,0-0.003
		c0-0.005-0.001-0.01-0.002-0.014c0-0.002,0-0.004-0.001-0.005c0-0.004-0.001-0.008-0.002-0.012c0-0.003,0-0.004-0.001-0.006
		c-0.001-0.004-0.001-0.007-0.002-0.011c0-0.001-0.001-0.005-0.001-0.007c-0.001-0.003-0.001-0.007-0.002-0.011
		c0-0.003,0-0.003,0-0.005c-0.001-0.006-0.002-0.011-0.003-0.017c0-0.001-0.001-0.004-0.001-0.005
		c-0.001-0.004-0.001-0.008-0.002-0.012c0-0.001-0.001-0.005-0.001-0.007c0-0.003-0.001-0.006-0.002-0.009s-0.001-0.006-0.001-0.008
		c0-0.003-0.001-0.006-0.001-0.009s-0.001-0.005-0.001-0.008s-0.001-0.006-0.001-0.009s-0.001-0.005-0.001-0.008
		s-0.001-0.007-0.002-0.01c0-0.004-0.001-0.01-0.002-0.014c0-0.002-0.001-0.005-0.001-0.008c0-0.004-0.001-0.005-0.001-0.009
		c0-0.002-0.001-0.005-0.001-0.008c0-0.002-0.001-0.006-0.001-0.008c0-0.003-0.001-0.005-0.001-0.008s-0.001-0.007-0.002-0.009
		c0-0.003,0-0.005-0.001-0.008c-0.001-0.003-0.001-0.005-0.002-0.009c0-0.002,0-0.004-0.001-0.006
		c-0.001-0.008-0.003-0.015-0.004-0.022c0-0.001,0-0.002,0-0.002c-0.001-0.004-0.001-0.007-0.002-0.011
		c0-0.002-0.001-0.004-0.001-0.006c0-0.004-0.001-0.007-0.002-0.011c0-0.001,0-0.003-0.001-0.005c0-0.003-0.001-0.008-0.002-0.011
		c0-0.001,0-0.003-0.001-0.005c0-0.004-0.001-0.008-0.002-0.012c0,0,0-0.001,0-0.002c-0.002-0.013-0.005-0.027-0.007-0.039
		c0-0.002,0-0.003-0.001-0.004c0-0.004-0.001-0.009-0.002-0.012c0-0.002,0-0.003-0.001-0.004c-0.001-0.005-0.001-0.007-0.002-0.012
		c0-0.002,0-0.003-0.001-0.004c0-0.004-0.001-0.009-0.002-0.012c0-0.002,0-0.003,0-0.004c-0.003-0.019-0.007-0.037-0.011-0.056
		c0-0.001,0-0.001,0-0.001c-0.001-0.005-0.002-0.009-0.003-0.014c0-0.001,0-0.002,0-0.002c0-0.006-0.001-0.009-0.002-0.014v-0.001
		c-0.005-0.024-0.01-0.049-0.014-0.073c0,0,0,0,0,0c-0.241-1.23-0.54-2.44-0.894-3.626C77.074,28.701,76.616,28.38,76.121,28.38
		L76.121,28.38z M67.165,13.078c-0.288,0-0.576,0.107-0.8,0.323c-0.458,0.442-0.472,1.172-0.03,1.63
		c2.01,2.084,3.77,4.405,5.23,6.898c0.215,0.366,0.6,0.57,0.996,0.57c0.198,0,0.398-0.051,0.582-0.158
		c0.549-0.321,0.734-1.027,0.413-1.577c-0.057-0.096-0.113-0.191-0.17-0.287c0,0,0-0.001,0-0.001
		c-0.009-0.016-0.019-0.032-0.028-0.047c0-0.001-0.001-0.002-0.002-0.003c-0.002-0.004-0.003-0.006-0.006-0.01
		c-0.001-0.001-0.001-0.002-0.002-0.003c-0.002-0.004-0.004-0.006-0.006-0.011c0,0,0,0,0-0.001
		c-0.007-0.012-0.014-0.023-0.021-0.035c0-0.001,0-0.001-0.001-0.002c-0.002-0.003-0.004-0.007-0.006-0.01
		c0-0.001-0.001-0.002-0.002-0.004c-0.002-0.003-0.004-0.006-0.006-0.009c-0.001-0.001-0.001-0.002-0.002-0.003
		c-0.006-0.011-0.014-0.022-0.02-0.033c-0.001-0.001-0.001-0.002-0.002-0.003c-0.002-0.003-0.004-0.007-0.006-0.01
		c-0.001-0.001-0.002-0.003-0.003-0.004c-0.001-0.003-0.003-0.006-0.005-0.009c-0.001-0.001-0.001-0.003-0.002-0.004
		c-0.006-0.011-0.012-0.02-0.018-0.03c-0.001-0.002-0.002-0.004-0.003-0.006c-0.002-0.003-0.003-0.004-0.004-0.007
		c-0.001-0.002-0.003-0.005-0.005-0.007c-0.001-0.002-0.002-0.004-0.004-0.007c-0.001-0.002-0.003-0.004-0.004-0.007
		c-0.002-0.003-0.002-0.004-0.004-0.007c-0.002-0.003-0.004-0.005-0.005-0.008c-0.002-0.003-0.004-0.006-0.006-0.009
		s-0.003-0.006-0.005-0.009c-0.001-0.002-0.003-0.004-0.004-0.006c-0.001-0.002-0.003-0.005-0.005-0.008
		c-0.001-0.002-0.003-0.004-0.004-0.006c-0.001-0.002-0.003-0.005-0.004-0.007c-0.002-0.003-0.002-0.004-0.004-0.007
		c-0.002-0.003-0.004-0.007-0.006-0.01c-0.001-0.001-0.002-0.002-0.002-0.003c-0.002-0.004-0.005-0.009-0.008-0.014
		c-0.001-0.002-0.002-0.003-0.003-0.005c-0.002-0.003-0.003-0.006-0.005-0.009c-0.001-0.002-0.002-0.004-0.003-0.006
		c-0.002-0.003-0.003-0.006-0.005-0.008c-0.001-0.002-0.002-0.004-0.003-0.006c-0.002-0.004-0.004-0.007-0.006-0.011
		c-0.001-0.001-0.001-0.002-0.002-0.003c-0.003-0.004-0.006-0.009-0.009-0.014c-0.001-0.002-0.001-0.002-0.003-0.005
		c-0.002-0.003-0.004-0.006-0.006-0.009c0-0.001-0.002-0.004-0.003-0.005c-0.002-0.003-0.004-0.006-0.006-0.009
		c-0.001-0.002-0.002-0.003-0.003-0.005c-0.002-0.003-0.004-0.007-0.006-0.01c0-0.001-0.001-0.002-0.002-0.003
		C73.096,20,73.093,19.995,73.09,19.99c0-0.001-0.001-0.002-0.002-0.003c-0.002-0.003-0.005-0.007-0.007-0.011
		c-0.001-0.001-0.002-0.003-0.003-0.004c-0.002-0.003-0.004-0.007-0.006-0.01c-0.001-0.002-0.002-0.003-0.003-0.005
		c-0.002-0.003-0.005-0.007-0.007-0.011l-0.002-0.003c-0.006-0.01-0.012-0.019-0.018-0.029c-0.001-0.001-0.002-0.003-0.003-0.004
		c-0.002-0.003-0.004-0.007-0.006-0.01c-0.001-0.002-0.002-0.002-0.003-0.005c-0.002-0.003-0.004-0.007-0.007-0.011
		c0-0.001-0.001-0.002-0.001-0.003c-0.006-0.01-0.012-0.02-0.019-0.029l-0.001-0.002c-0.003-0.004-0.005-0.008-0.008-0.013
		c0-0.001-0.001-0.001-0.002-0.002c-0.002-0.005-0.005-0.009-0.008-0.014l0-0.001c-0.006-0.01-0.013-0.02-0.019-0.03l-0.001-0.001
		c-0.003-0.004-0.005-0.008-0.008-0.013c-0.001-0.001-0.002-0.002-0.002-0.003c-0.002-0.004-0.005-0.008-0.007-0.012
		c0-0.001-0.001-0.001-0.001-0.002c-0.009-0.015-0.019-0.029-0.028-0.044c0-0.001-0.001-0.001-0.001-0.002
		c-0.003-0.004-0.005-0.009-0.008-0.013c0-0.001,0,0,0-0.001c-0.01-0.015-0.019-0.03-0.029-0.045c0-0.001,0,0,0-0.001
		c-0.003-0.005-0.006-0.01-0.009-0.015l0,0c-1.413-2.234-3.048-4.313-4.874-6.207C67.769,13.196,67.467,13.078,67.165,13.078
		L67.165,13.078z M52.199,3.57c-0.48,0-0.929,0.303-1.092,0.783c-0.205,0.603,0.119,1.258,0.722,1.462
		C54.563,6.743,57.188,8,59.631,9.554c0.192,0.122,0.406,0.18,0.618,0.18c0.381,0,0.754-0.189,0.974-0.535
		c0.341-0.536,0.184-1.247-0.351-1.589c-0.789-0.501-1.596-0.975-2.422-1.419l0,0c-0.026-0.014-0.051-0.027-0.077-0.042
		c0,0-0.001,0-0.001,0c-0.018-0.009-0.034-0.018-0.051-0.027l0,0c-0.004-0.002-0.008-0.004-0.013-0.006c0,0,0,0,0,0
		c-0.021-0.012-0.042-0.022-0.063-0.034c-0.001,0-0.001,0-0.002-0.001c-0.004-0.002-0.007-0.004-0.011-0.006
		c0,0-0.001-0.001-0.002-0.001c-0.012-0.006-0.024-0.013-0.036-0.019c0,0,0,0-0.001,0c-0.003-0.002-0.007-0.004-0.01-0.006
		c-0.001,0-0.003-0.001-0.004-0.002c-0.003-0.001-0.006-0.003-0.01-0.005c-0.001-0.001-0.003-0.001-0.004-0.002
		c-0.003-0.002-0.007-0.004-0.01-0.005c0,0,0,0-0.001,0c-0.012-0.006-0.024-0.013-0.036-0.019c-0.001,0-0.002-0.001-0.002-0.001
		c-0.003-0.001-0.007-0.004-0.011-0.005c-0.001,0-0.002-0.001-0.003-0.002C58.097,6.003,58.092,6,58.089,5.999
		c-0.001,0-0.002-0.001-0.003-0.001c-0.011-0.006-0.023-0.012-0.034-0.018c-0.001,0-0.002-0.001-0.003-0.001
		c-0.003-0.002-0.006-0.003-0.01-0.005c-0.001,0-0.003-0.001-0.004-0.002c-0.003-0.001-0.006-0.003-0.01-0.005
		c-0.001,0-0.002-0.001-0.003-0.002c-0.003-0.001-0.007-0.004-0.011-0.005c-0.001,0-0.001-0.001-0.002-0.001
		c-0.006-0.003-0.016-0.008-0.022-0.011c-0.001,0-0.001-0.001-0.002-0.001c-0.003-0.002-0.006-0.003-0.009-0.005
		c-0.002-0.001-0.003-0.002-0.005-0.003c-0.003-0.001-0.005-0.002-0.008-0.004c-0.002-0.001-0.004-0.002-0.006-0.003
		c-0.003-0.002-0.005-0.003-0.009-0.004c-0.001-0.001-0.003-0.002-0.005-0.003c-0.011-0.005-0.021-0.011-0.031-0.016
		c-0.002-0.001-0.003-0.002-0.005-0.002c-0.003-0.002-0.006-0.003-0.009-0.005c-0.001-0.001-0.003-0.001-0.004-0.002
		c-0.003-0.001-0.006-0.003-0.01-0.005c-0.001-0.001-0.003-0.002-0.004-0.002c-0.003-0.002-0.006-0.003-0.009-0.005
		c-0.002-0.001-0.004-0.002-0.005-0.003c-0.005-0.002-0.01-0.005-0.015-0.008c-0.002-0.001-0.004-0.002-0.007-0.003
		c-0.003-0.001-0.005-0.002-0.008-0.004c-0.002-0.001-0.004-0.002-0.007-0.003c-0.002-0.001-0.006-0.003-0.008-0.004
		c-0.002-0.001-0.004-0.002-0.006-0.003c-0.003-0.002-0.005-0.002-0.008-0.004c-0.002-0.001-0.004-0.002-0.006-0.003
		c-0.003-0.001-0.009-0.004-0.012-0.006c-0.003-0.001-0.006-0.003-0.009-0.004c-0.002-0.001-0.004-0.002-0.006-0.003
		c-0.003-0.001-0.005-0.003-0.008-0.004c-0.002-0.001-0.004-0.002-0.006-0.003c-0.003-0.001-0.006-0.003-0.009-0.004
		c-0.002-0.001-0.004-0.002-0.006-0.003c-0.003-0.001-0.006-0.003-0.009-0.004c-0.002-0.001-0.003-0.002-0.006-0.003
		c-0.004-0.002-0.009-0.005-0.014-0.007c-0.001,0-0.002-0.001-0.003-0.001C57.704,5.8,57.7,5.798,57.696,5.796
		c-0.002-0.001-0.004-0.002-0.006-0.003c-0.003-0.001-0.006-0.003-0.009-0.004c-0.002-0.001-0.004-0.002-0.006-0.003
		c-0.002-0.001-0.005-0.003-0.008-0.004c-0.002-0.001-0.004-0.002-0.006-0.003c-0.004-0.002-0.007-0.004-0.011-0.005
		c-0.001,0-0.002-0.001-0.003-0.002c-0.004-0.002-0.009-0.005-0.014-0.007c-0.002-0.001-0.004-0.002-0.006-0.003
		c-0.003-0.001-0.006-0.003-0.009-0.004c-0.002-0.001-0.004-0.002-0.006-0.003c-0.003-0.002-0.006-0.003-0.009-0.005
		c-0.002-0.001-0.003-0.001-0.006-0.003c-0.003-0.001-0.006-0.003-0.01-0.005c-0.002-0.001-0.003-0.001-0.005-0.002
		c-0.005-0.002-0.01-0.005-0.015-0.007c-0.001,0-0.002-0.001-0.003-0.002c-0.004-0.002-0.008-0.004-0.011-0.006
		c-0.001,0-0.004-0.001-0.005-0.002c-0.003-0.002-0.007-0.004-0.011-0.005c-0.002-0.001-0.002-0.001-0.005-0.002
		c-0.003-0.002-0.007-0.003-0.01-0.005c-0.001,0-0.003-0.002-0.004-0.002c-0.004-0.002-0.008-0.004-0.013-0.006
		c-0.001,0-0.001,0-0.003-0.001c-0.005-0.002-0.009-0.004-0.014-0.007c-0.001,0-0.003-0.001-0.004-0.001
		c-0.004-0.002-0.007-0.004-0.011-0.006C57.47,5.681,57.47,5.681,57.467,5.68c-0.003-0.001-0.007-0.003-0.01-0.005
		c-0.001,0-0.003-0.001-0.005-0.002c-0.004-0.002-0.008-0.004-0.012-0.006c-0.001,0-0.002,0-0.003-0.001
		c-0.005-0.002-0.01-0.005-0.015-0.007c-0.001,0-0.001-0.001-0.003-0.001c-0.004-0.002-0.008-0.004-0.012-0.006
		c-0.001,0-0.004-0.002-0.005-0.002c-0.003-0.002-0.007-0.003-0.01-0.005C57.39,5.641,57.39,5.641,57.388,5.64
		c-0.003-0.002-0.007-0.004-0.011-0.005c-0.002-0.001-0.002-0.001-0.005-0.002c-0.01-0.005-0.02-0.01-0.029-0.015
		c-0.001,0-0.003-0.001-0.004-0.001c-0.004-0.002-0.008-0.004-0.012-0.006c-0.002-0.001-0.002-0.001-0.004-0.002
		c-0.004-0.002-0.007-0.004-0.011-0.006c-0.001,0-0.003-0.001-0.004-0.002c-0.004-0.002-0.009-0.004-0.014-0.007
		c-0.001,0,0,0-0.001,0c-0.005-0.002-0.01-0.005-0.016-0.008c-0.001,0-0.002-0.001-0.003-0.001
		c-0.004-0.002-0.008-0.004-0.012-0.006c-0.001,0-0.003-0.001-0.004-0.002c-0.004-0.002-0.007-0.003-0.011-0.005
		c-0.001,0-0.003-0.002-0.004-0.002c-0.004-0.002-0.009-0.004-0.013-0.006l-0.001,0c-0.005-0.003-0.01-0.005-0.016-0.008l0,0
		c-0.005-0.002-0.01-0.005-0.015-0.007c-0.001,0-0.002-0.001-0.003-0.001c-0.004-0.002-0.008-0.004-0.012-0.006
		c-0.002-0.001-0.002-0.001-0.004-0.002c-0.004-0.002-0.008-0.004-0.012-0.006c-0.001,0-0.002-0.001-0.003-0.001
		c-0.01-0.005-0.021-0.01-0.031-0.015L57.13,5.513c-0.004-0.002-0.009-0.004-0.013-0.006c-0.001,0-0.003-0.001-0.004-0.002
		c-0.004-0.002-0.008-0.004-0.012-0.006c-0.001,0-0.002-0.001-0.003-0.001c-0.005-0.002-0.009-0.005-0.014-0.007
		c-0.001-0.001,0,0-0.001,0c-0.011-0.005-0.021-0.01-0.031-0.015c-0.001-0.001-0.002-0.001-0.003-0.001
		c-0.004-0.002-0.009-0.004-0.013-0.006c-0.001-0.001-0.001-0.001-0.002-0.001c-0.005-0.002-0.01-0.004-0.015-0.007l-0.001,0
		c-0.01-0.005-0.021-0.01-0.032-0.015l-0.001-0.001c-0.005-0.002-0.009-0.004-0.014-0.007c-0.001,0-0.001,0-0.002-0.001
		c-0.004-0.002-0.009-0.004-0.014-0.007c-0.001,0-0.001,0-0.002-0.001c-0.016-0.007-0.031-0.015-0.047-0.023c-0.001,0,0,0-0.001,0
		c-0.005-0.002-0.01-0.004-0.014-0.007c-0.001,0-0.001,0-0.002-0.001c-0.005-0.002-0.01-0.005-0.015-0.007h0
		c-0.011-0.005-0.021-0.01-0.032-0.016l-0.002,0c-0.004-0.002-0.009-0.004-0.014-0.007l-0.003-0.001
		c-0.004-0.002-0.009-0.005-0.014-0.007l-0.001,0c-0.01-0.005-0.021-0.01-0.032-0.016h0c-0.005-0.002-0.01-0.005-0.015-0.007
		c-0.001,0-0.001,0-0.002-0.001c-0.004-0.002-0.009-0.004-0.014-0.006c-0.001-0.001,0,0-0.002-0.001
		c-0.016-0.008-0.032-0.015-0.048-0.023l0,0c-0.005-0.002-0.01-0.005-0.016-0.007l-0.001,0c-0.005-0.002-0.01-0.005-0.015-0.007l0,0
		c-0.016-0.007-0.032-0.015-0.048-0.022l-0.001,0c-0.004-0.002-0.01-0.005-0.015-0.007c-0.001,0,0,0-0.001,0
		c-0.016-0.007-0.032-0.015-0.048-0.022l0,0c-0.005-0.002-0.01-0.004-0.016-0.007l-0.001,0c-0.021-0.01-0.042-0.02-0.064-0.03
		l-0.001,0c-0.021-0.01-0.043-0.02-0.064-0.03c-0.001-0.001,0,0-0.001-0.001c-0.005-0.002-0.01-0.004-0.016-0.007l0,0
		c-0.016-0.008-0.032-0.015-0.049-0.023l-0.001,0c-0.005-0.002-0.01-0.004-0.015-0.007l-0.001,0
		c-0.027-0.012-0.054-0.025-0.082-0.037v0c-0.021-0.01-0.043-0.02-0.065-0.03l0,0c-0.022-0.01-0.043-0.02-0.065-0.03h0
		c-0.049-0.022-0.098-0.044-0.147-0.067h0c-0.021-0.01-0.043-0.02-0.065-0.029l0,0c-0.005-0.002-0.011-0.005-0.016-0.007
		c-0.001,0,0,0-0.001,0c-0.016-0.007-0.033-0.015-0.049-0.022l0,0c-0.005-0.002-0.01-0.004-0.015-0.006l-0.002-0.001
		c-0.021-0.01-0.043-0.019-0.065-0.029l0,0c-0.005-0.002-0.011-0.004-0.016-0.007l0,0c-0.017-0.007-0.033-0.015-0.049-0.022h0
		c-0.005-0.002-0.011-0.004-0.016-0.007l0,0c-0.022-0.009-0.044-0.019-0.066-0.029l0,0c-0.022-0.01-0.044-0.019-0.066-0.029h0
		c-0.005-0.002-0.011-0.005-0.017-0.007l0,0c-0.022-0.009-0.043-0.019-0.065-0.028l-0.001,0c-0.022-0.009-0.044-0.019-0.066-0.028
		l0,0c-0.022-0.009-0.044-0.019-0.066-0.028h0c-0.005-0.002-0.011-0.004-0.016-0.007l-0.001,0c-0.005-0.002-0.011-0.004-0.016-0.007
		h0c-0.017-0.007-0.033-0.014-0.049-0.021l0,0c-0.005-0.002-0.011-0.004-0.016-0.007h0c-0.017-0.007-0.033-0.014-0.05-0.021
		c-0.001,0,0.001,0,0,0c-0.005-0.002-0.01-0.004-0.016-0.007c-0.001,0,0,0-0.001,0c-0.017-0.007-0.033-0.014-0.049-0.021l0,0
		c-0.005-0.002-0.011-0.004-0.016-0.006l-0.001-0.001c-0.005-0.002-0.011-0.004-0.016-0.006h0c-0.017-0.007-0.032-0.014-0.049-0.021
		c-0.001,0-0.001,0-0.003-0.001c-0.004-0.002-0.009-0.004-0.014-0.006c-0.001,0,0,0-0.002-0.001
		c-0.016-0.007-0.032-0.013-0.048-0.02c-0.001,0-0.001,0-0.002-0.001C54.94,4.523,54.935,4.521,54.93,4.52l-0.002-0.001
		c-0.005-0.002-0.01-0.004-0.015-0.006l-0.001-0.001c-0.011-0.004-0.021-0.009-0.032-0.013l-0.002-0.001
		c-0.005-0.002-0.009-0.004-0.014-0.006c-0.001,0-0.001,0-0.002-0.001c-0.004-0.002-0.009-0.003-0.014-0.005
		c-0.001,0-0.001,0-0.002-0.001c-0.011-0.005-0.021-0.009-0.033-0.014c-0.001,0,0,0,0,0c-0.005-0.002-0.01-0.004-0.015-0.006
		c-0.001,0-0.002-0.001-0.004-0.001c-0.004-0.001-0.008-0.003-0.012-0.005c-0.001,0-0.002-0.001-0.003-0.001
		c-0.005-0.002-0.01-0.004-0.014-0.006l-0.001,0c-0.006-0.002-0.011-0.004-0.017-0.007l-0.001,0
		c-0.005-0.002-0.01-0.004-0.015-0.006c-0.001,0-0.002-0.001-0.003-0.001c-0.004-0.001-0.008-0.003-0.012-0.005
		c-0.002-0.001-0.002-0.001-0.004-0.002c-0.004-0.001-0.008-0.003-0.012-0.005c-0.001,0-0.002-0.001-0.004-0.001
		c-0.005-0.002-0.009-0.004-0.014-0.006c-0.001,0,0,0-0.001,0c-0.005-0.002-0.01-0.004-0.016-0.006l-0.003-0.001
		c-0.004-0.002-0.009-0.004-0.013-0.005c-0.001,0-0.003-0.001-0.004-0.002C54.638,4.4,54.634,4.398,54.63,4.397
		c-0.001,0-0.003-0.001-0.004-0.002c-0.004-0.001-0.008-0.003-0.011-0.005c-0.002,0-0.002,0-0.005-0.001
		c-0.005-0.002-0.01-0.004-0.016-0.006c-0.001,0,0,0-0.001,0c-0.005-0.002-0.009-0.004-0.014-0.006
		c-0.001,0-0.003-0.001-0.005-0.002c-0.003-0.001-0.007-0.003-0.011-0.004c-0.002-0.001-0.002-0.001-0.004-0.002
		c-0.004-0.001-0.008-0.003-0.012-0.004c-0.001,0-0.003-0.001-0.004-0.002c-0.005-0.002-0.011-0.004-0.016-0.006l0,0
		c-0.005-0.002-0.01-0.004-0.016-0.006c-0.001,0-0.003-0.001-0.004-0.001c-0.004-0.001-0.007-0.003-0.011-0.004
		c-0.002-0.001-0.003-0.001-0.006-0.002c-0.003-0.001-0.006-0.002-0.01-0.004c-0.001,0-0.005-0.002-0.006-0.002
		c-0.003-0.001-0.007-0.003-0.011-0.004c-0.001,0-0.003-0.001-0.004-0.001c-0.005-0.002-0.01-0.004-0.015-0.006
		c-0.002,0-0.002-0.001-0.005-0.002c-0.003-0.001-0.007-0.003-0.011-0.004c-0.001,0-0.004-0.001-0.005-0.002
		c-0.003-0.001-0.007-0.002-0.01-0.004c-0.002-0.001-0.003-0.001-0.006-0.002c-0.003-0.001-0.007-0.003-0.011-0.004
		c-0.002-0.001-0.002-0.001-0.005-0.002c-0.005-0.002-0.01-0.004-0.015-0.006l-0.001,0c-0.005-0.002-0.01-0.004-0.015-0.006
		c-0.001,0-0.003-0.001-0.005-0.001c-0.003-0.001-0.007-0.003-0.011-0.004c-0.002-0.001-0.003-0.001-0.006-0.002
		c-0.003-0.001-0.007-0.003-0.011-0.004c-0.001,0-0.003-0.001-0.004-0.001c-0.004-0.002-0.009-0.004-0.013-0.005
		c-0.001,0-0.001,0-0.002-0.001c-0.005-0.002-0.011-0.004-0.016-0.006C54.29,4.261,54.29,4.261,54.288,4.26
		c-0.003-0.001-0.007-0.002-0.01-0.004c-0.002,0-0.004-0.001-0.007-0.002c-0.003-0.001-0.006-0.002-0.009-0.003
		c-0.002-0.001-0.004-0.002-0.007-0.003c-0.003-0.001-0.005-0.002-0.009-0.003c-0.002,0-0.004-0.001-0.007-0.002
		c-0.004-0.002-0.008-0.003-0.012-0.005c-0.003-0.001-0.005-0.002-0.009-0.003c-0.003-0.001-0.006-0.002-0.009-0.003
		c-0.003-0.001-0.004-0.002-0.008-0.003c-0.002-0.001-0.005-0.002-0.007-0.003s-0.005-0.002-0.008-0.003
		c-0.002-0.001-0.005-0.002-0.008-0.003c-0.003-0.001-0.004-0.001-0.008-0.003c-0.003-0.001-0.006-0.002-0.009-0.003
		c-0.003-0.001-0.007-0.003-0.01-0.004c-0.003-0.001-0.007-0.002-0.01-0.004C54.14,4.202,54.136,4.201,54.134,4.2
		c-0.002-0.001-0.005-0.002-0.008-0.003s-0.005-0.002-0.007-0.002c-0.003-0.001-0.006-0.002-0.008-0.003s-0.005-0.002-0.007-0.003
		c-0.003-0.001-0.006-0.002-0.009-0.003c-0.002-0.001-0.004-0.002-0.007-0.002c-0.002-0.001-0.004-0.002-0.006-0.002
		c-0.006-0.002-0.011-0.004-0.017-0.007c-0.002,0-0.004-0.001-0.006-0.002c-0.004-0.001-0.005-0.002-0.009-0.003
		c-0.002-0.001-0.005-0.002-0.007-0.003c-0.002,0-0.006-0.002-0.009-0.003c-0.002-0.001-0.004-0.002-0.006-0.002
		c-0.003-0.001-0.005-0.002-0.009-0.003c-0.002-0.001-0.003-0.001-0.005-0.002c-0.006-0.002-0.012-0.004-0.018-0.006
		c-0.002-0.001-0.004-0.002-0.006-0.002c-0.003-0.001-0.005-0.002-0.009-0.003c-0.002-0.001-0.004-0.001-0.006-0.002
		c-0.002-0.001-0.007-0.003-0.009-0.003c-0.002-0.001-0.004-0.001-0.006-0.002c-0.004-0.001-0.006-0.002-0.01-0.003
		c-0.001,0-0.002-0.001-0.004-0.001c-0.011-0.004-0.023-0.009-0.035-0.013c-0.001-0.001-0.003-0.001-0.005-0.002
		C53.903,4.111,53.9,4.11,53.897,4.109c-0.002,0-0.004-0.001-0.006-0.002c-0.002-0.001-0.007-0.003-0.009-0.004
		c-0.002,0-0.004-0.001-0.006-0.002c-0.012-0.005-0.023-0.009-0.036-0.014c0,0-0.001,0-0.002,0
		c-0.003-0.001-0.007-0.003-0.011-0.004c-0.001,0-0.003-0.001-0.004-0.001c-0.004-0.002-0.006-0.002-0.011-0.004
		c-0.001,0-0.002,0-0.003-0.001c-0.003-0.001-0.008-0.003-0.012-0.004l0,0c-0.013-0.005-0.026-0.01-0.039-0.015
		c-0.001,0-0.002,0-0.003-0.001c-0.004-0.002-0.007-0.002-0.011-0.004c-0.001,0-0.002-0.001-0.003-0.001
		c-0.004-0.002-0.007-0.003-0.012-0.005c0,0-0.001,0-0.001,0c-0.019-0.007-0.036-0.013-0.054-0.021c0,0-0.001,0-0.001,0
		c-0.004-0.001-0.008-0.003-0.012-0.004c-0.001,0-0.001,0-0.002-0.001c-0.018-0.007-0.035-0.013-0.053-0.02c0,0-0.001,0-0.001,0
		c-0.005-0.002-0.008-0.003-0.013-0.005c0,0,0,0-0.001,0c-0.023-0.009-0.045-0.017-0.068-0.025c0,0,0,0-0.001,0
		c-0.004-0.002-0.009-0.003-0.013-0.005l0,0c-0.019-0.007-0.037-0.013-0.056-0.02c0,0,0,0,0,0c-0.005-0.002-0.009-0.003-0.013-0.005
		c0,0-0.001,0-0.001-0.001c-0.289-0.105-0.577-0.207-0.868-0.306C52.446,3.589,52.321,3.57,52.199,3.57L52.199,3.57z M40.125,1.588
		c-0.006,0-0.011,0-0.017,0c-0.002,0-0.003,0-0.006,0c-0.004,0-0.008,0-0.011,0c-0.003,0-0.004,0-0.007,0c-0.004,0-0.007,0-0.011,0
		c-0.002,0-0.004,0-0.007,0c-0.003,0-0.007,0-0.011,0c-0.001,0-0.005,0-0.006,0c-0.004,0-0.009,0-0.013,0c-0.001,0-0.003,0-0.004,0
		c-0.006,0-0.011,0-0.017,0c-0.001,0-0.003,0-0.004,0c-0.004,0-0.009,0-0.013,0c-0.001,0-0.005,0-0.006,0c-0.003,0-0.007,0-0.011,0
		c-0.003,0-0.005,0-0.008,0c-0.003,0-0.006,0-0.01,0c-0.003,0-0.005,0-0.007,0c-0.003,0-0.007,0-0.011,0c-0.003,0-0.003,0-0.006,0
		c-0.004,0-0.009,0-0.014,0c-0.001,0-0.002,0-0.003,0c-0.006,0-0.012,0-0.017,0c-0.002,0-0.002,0-0.005,0c-0.004,0-0.008,0-0.013,0
		c-0.001,0-0.004,0-0.005,0c-0.004,0-0.008,0-0.012,0c-0.002,0-0.003,0-0.006,0c-0.004,0-0.007,0-0.011,0c-0.001,0-0.005,0-0.006,0
		c-0.004,0-0.007,0-0.011,0c-0.002,0-0.003,0-0.006,0c-0.006,0-0.011,0-0.017,0c-0.001,0-0.002,0-0.003,0c-0.005,0-0.009,0-0.014,0
		c-0.002,0-0.004,0-0.006,0c-0.004,0-0.007,0-0.011,0c-0.002,0-0.004,0-0.006,0c-0.003,0-0.007,0-0.011,0c-0.002,0-0.004,0-0.007,0
		c-0.004,0-0.007,0-0.011,0c-0.001,0-0.005,0-0.007,0c-0.004,0-0.008,0-0.012,0c-0.002,0-0.002,0-0.005,0c-0.005,0-0.011,0-0.017,0
		c-0.001,0-0.004,0-0.005,0c-0.004,0-0.008,0-0.012,0c-0.001,0-0.006,0-0.007,0c-0.003,0-0.006,0-0.01,0c-0.002,0-0.005,0-0.007,0
		c-0.003,0-0.007,0-0.01,0c-0.002,0-0.005,0-0.007,0c-0.003,0-0.007,0-0.011,0c-0.002,0-0.003,0-0.006,0c-0.005,0-0.009,0-0.014,0
		c-0.003,0-0.003,0-0.006,0c-0.005,0-0.01,0-0.015,0c-0.002,0-0.005,0-0.007,0c-0.003,0-0.006,0-0.009,0s-0.006,0-0.008,0
		c-0.003,0-0.006,0-0.009,0c-0.002,0-0.005,0-0.008,0c-0.003,0-0.006,0-0.009,0c-0.002,0-0.005,0-0.008,0c-0.003,0-0.007,0-0.01,0
		c-0.002,0-0.004,0-0.007,0c-0.005,0-0.011,0-0.017,0c-0.002,0-0.003,0-0.006,0c-0.003,0-0.007,0-0.011,0c-0.003,0-0.005,0-0.008,0
		c-0.003,0-0.006,0-0.009,0s-0.006,0-0.008,0c-0.003,0-0.006,0-0.009,0c-0.002,0-0.005,0-0.007,0c-0.003,0-0.007,0-0.011,0
		c-0.002,0-0.004,0-0.007,0c-0.004,0-0.008,0-0.012,0c-0.001,0-0.004,0-0.005,0c-0.006,0-0.011,0-0.017,0c-0.003,0-0.004,0-0.006,0
		c-0.003,0-0.008,0-0.011,0c-0.001,0-0.005,0-0.007,0c-0.003,0-0.007,0-0.01,0c-0.002,0-0.005,0-0.007,0c-0.003,0-0.007,0-0.01,0
		c-0.002,0-0.004,0-0.007,0c-0.004,0-0.007,0-0.011,0c-0.003,0-0.004,0-0.006,0c-0.004,0-0.009,0-0.013,0c-0.002,0-0.006,0-0.009,0
		c-0.004,0-0.008,0-0.012,0c-0.002,0-0.004,0-0.007,0s-0.007,0-0.01,0s-0.005,0-0.007,0c-0.003,0-0.006,0-0.01,0
		c-0.002,0-0.005,0-0.008,0c-0.003,0-0.006,0-0.009,0c-0.002,0-0.005,0-0.008,0c-0.003,0-0.007,0-0.011,0c-0.003,0-0.003,0-0.006,0
		c-0.005,0-0.011,0-0.017,0c-0.001,0-0.003,0-0.004,0c-0.004,0-0.008,0-0.012,0c-0.003,0-0.005,0-0.007,0c-0.004,0-0.007,0-0.01,0
		c-0.002,0-0.004,0-0.007,0c-0.003,0-0.007,0-0.011,0c-0.003,0-0.004,0-0.006,0c-0.004,0-0.008,0-0.011,0c-0.003,0-0.004,0-0.006,0
		c-0.004,0-0.008,0-0.012,0c-0.001,0-0.005,0-0.006,0c-0.005,0-0.011,0-0.016,0c-0.003,0-0.003,0-0.006,0c-0.004,0-0.007,0-0.011,0
		c-0.001,0-0.006,0-0.007,0c-0.003,0-0.006,0-0.01,0c-0.002,0-0.005,0-0.008,0s-0.006,0-0.009,0c-0.002,0-0.005,0-0.008,0
		c-0.003,0-0.007,0-0.01,0c-0.002,0-0.004,0-0.006,0c-0.005,0-0.009,0-0.014,0c-0.004,0-0.005,0-0.009,0c-0.003,0-0.007,0-0.01,0
		c-0.004,0-0.005,0-0.009,0c-0.002,0-0.005,0-0.007,0c-0.003,0-0.007,0-0.009,0c-0.003,0-0.005,0-0.008,0c-0.002,0-0.006,0-0.009,0
		c-0.002,0-0.005,0-0.008,0c-0.004,0-0.004,0-0.008,0c-0.003,0-0.007,0-0.01,0c-0.003,0-0.004,0-0.007,0c-0.005,0-0.011,0-0.016,0
		c-0.002,0-0.004,0-0.007,0c-0.003,0-0.007,0-0.01,0c-0.001,0-0.006,0-0.007,0c-0.003,0-0.006,0-0.01,0c-0.002,0-0.005,0-0.008,0
		c-0.003,0-0.006,0-0.009,0c-0.002,0-0.005,0-0.008,0c-0.003,0-0.006,0-0.009,0s-0.005,0-0.008,0c-0.004,0-0.008,0-0.012,0
		c-0.002,0-0.004,0-0.007,0c-0.004,0-0.009,0-0.014,0c-0.002,0-0.004,0-0.007,0c-0.003,0-0.006,0-0.01,0c-0.002,0-0.005,0-0.008,0
		c-0.003,0-0.006,0-0.009,0s-0.006,0-0.008,0c-0.003,0-0.006,0-0.009,0c-0.001,0-0.006,0-0.007,0c-0.003,0-0.007,0-0.01,0
		c-0.003,0-0.004,0-0.007,0c-0.005,0-0.01,0-0.016,0.001c-0.002,0-0.004,0-0.007,0c-0.003,0-0.007,0-0.01,0s-0.005,0-0.008,0
		c-0.003,0-0.006,0-0.009,0s-0.005,0-0.008,0c-0.003,0-0.007,0-0.01,0c-0.002,0-0.005,0-0.007,0c-0.003,0-0.007,0-0.01,0
		c-0.002,0-0.005,0-0.007,0c-0.003,0-0.007,0-0.01,0c-0.003,0-0.004,0-0.007,0c-0.005,0-0.011,0-0.017,0c-0.002,0-0.003,0-0.006,0
		c-0.003,0-0.007,0-0.01,0c-0.002,0-0.005,0-0.008,0c-0.003,0-0.006,0-0.009,0c-0.002,0-0.005,0-0.008,0c-0.003,0-0.006,0-0.009,0
		c-0.002,0-0.005,0-0.008,0c-0.003,0-0.006,0-0.01,0c-0.002,0-0.004,0-0.007,0c-0.004,0-0.008,0-0.013,0.001
		c-0.002,0-0.006,0-0.009,0c-0.004,0-0.008,0-0.012,0c-0.002,0-0.005,0-0.007,0c-0.003,0-0.006,0-0.009,0s-0.006,0-0.008,0
		c-0.003,0-0.006,0-0.009,0c-0.002,0-0.005,0-0.008,0s-0.006,0-0.009,0c-0.004,0-0.004,0-0.008,0c-0.003,0-0.006,0-0.01,0
		c-0.002,0-0.004,0-0.006,0c-0.005,0-0.01,0-0.016,0c-0.002,0-0.006,0-0.009,0c-0.003,0-0.006,0-0.009,0c-0.004,0-0.004,0-0.008,0
		c-0.002,0-0.005,0-0.008,0c-0.002,0-0.006,0-0.008,0c-0.003,0-0.006,0-0.009,0c-0.002,0-0.005,0-0.008,0s-0.006,0-0.009,0
		c-0.002,0-0.005,0-0.008,0c-0.003,0-0.007,0-0.01,0c-0.004,0-0.005,0-0.009,0c-0.005,0-0.009,0-0.014,0.001
		c-0.002,0-0.004,0-0.007,0c-0.003,0-0.006,0-0.01,0c-0.002,0-0.005,0-0.008,0c-0.002,0-0.005,0-0.008,0s-0.006,0-0.008,0
		c-0.003,0-0.006,0-0.009,0s-0.005,0-0.007,0c-0.004,0-0.007,0-0.011,0c-0.002,0-0.004,0-0.006,0c-0.006,0-0.011,0-0.017,0.001
		c-0.002,0-0.003,0-0.006,0c-0.003,0-0.007,0-0.011,0c-0.002,0-0.005,0-0.008,0c-0.003,0-0.006,0-0.009,0.001
		c-0.003,0-0.005,0-0.008,0c-0.003,0-0.006,0-0.009,0c-0.002,0-0.005,0-0.008,0c-0.003,0-0.006,0-0.009,0c-0.002,0-0.005,0-0.008,0
		s-0.006,0-0.009,0c-0.002,0-0.007,0-0.009,0c-0.005,0-0.009,0-0.014,0c-0.003,0-0.005,0-0.008,0c-0.003,0-0.006,0-0.009,0
		c-0.004,0-0.004,0-0.008,0c-0.002,0-0.006,0-0.009,0c-0.002,0-0.005,0-0.008,0c-0.003,0-0.006,0-0.009,0c-0.002,0-0.006,0-0.009,0
		c-0.002,0-0.005,0-0.008,0c-0.003,0-0.006,0-0.009,0c-0.003,0-0.006,0-0.009,0c-0.005,0-0.01,0-0.015,0c-0.003,0-0.006,0-0.009,0
		c-0.003,0-0.005,0-0.009,0c-0.002,0-0.005,0-0.007,0c-0.004,0-0.006,0-0.01,0c-0.002,0-0.005,0-0.007,0c-0.002,0-0.007,0-0.009,0
		c-0.002,0-0.005,0-0.007,0c-0.004,0-0.005,0-0.009,0c-0.003,0-0.005,0-0.008,0s-0.006,0-0.009,0c-0.001,0-0.003,0-0.005,0
		c-0.007,0-0.013,0-0.021,0.001c-0.002,0-0.004,0-0.006,0c-0.004,0-0.006,0-0.01,0c-0.002,0-0.005,0-0.007,0
		c-0.003,0-0.008,0-0.01,0c-0.002,0-0.004,0-0.006,0c-0.004,0-0.006,0-0.01,0c-0.002,0-0.004,0-0.006,0c-0.004,0-0.007,0-0.011,0
		c-0.001,0-0.002,0-0.003,0c-0.013,0-0.026,0.001-0.039,0.002c-0.002,0-0.004,0-0.006,0c-0.004,0-0.006,0-0.01,0.001
		c-0.002,0-0.004,0-0.006,0c-0.003,0-0.008,0-0.01,0.001c-0.002,0-0.004,0-0.007,0c-0.004,0-0.006,0-0.01,0
		c-0.002,0-0.004,0-0.006,0c-0.004,0-0.006,0-0.01,0c-0.002,0-0.004,0-0.006,0c-0.006,0-0.013,0-0.019,0.001
		c-0.002,0-0.005,0-0.007,0c-0.004,0-0.006,0-0.01,0c-0.002,0-0.005,0-0.007,0c-0.002,0-0.007,0-0.009,0c-0.002,0-0.005,0-0.007,0
		c-0.003,0-0.008,0-0.01,0.001c-0.002,0-0.004,0-0.007,0c-0.003,0-0.006,0-0.01,0c-0.002,0-0.004,0-0.006,0
		c-0.013,0-0.023,0.001-0.036,0.002c-0.002,0-0.004,0-0.006,0c-0.004,0-0.006,0-0.01,0.001c-0.002,0-0.005,0-0.007,0
		c-0.003,0-0.008,0-0.01,0c-0.002,0-0.004,0-0.006,0c-0.004,0-0.007,0-0.011,0c-0.001,0-0.003,0-0.005,0
		c-0.004,0-0.008,0-0.011,0.001c-0.001,0-0.002,0-0.003,0c-0.009,0-0.018,0.001-0.027,0.002c0,0-0.001,0-0.001,0
		c-0.004,0-0.007,0-0.011,0.001c-0.002,0-0.004,0-0.005,0c-0.004,0-0.007,0-0.011,0.001c-0.002,0-0.004,0-0.006,0
		c-0.002,0-0.007,0-0.01,0s-0.004,0-0.007,0c-0.004,0-0.006,0-0.01,0c-0.002,0-0.004,0-0.006,0
		c-0.013,0.001-0.025,0.002-0.038,0.003c-0.001,0-0.002,0-0.004,0c-0.004,0-0.007,0-0.011,0.001c-0.002,0-0.004,0-0.006,0
		c-0.004,0-0.006,0-0.01,0c-0.002,0-0.004,0-0.006,0c-0.004,0-0.006,0-0.01,0.001c-0.002,0-0.004,0-0.006,0
		c-0.004,0-0.007,0-0.011,0c-0.002,0-0.003,0-0.005,0c-0.013,0.001-0.026,0.002-0.039,0.003c-0.001,0-0.002,0-0.004,0
		c-0.004,0-0.007,0-0.011,0c-0.001,0-0.003,0-0.005,0c-0.004,0-0.008,0-0.012,0.001c-0.001,0-0.003,0-0.004,0
		c-0.004,0-0.008,0.001-0.012,0.001c-0.001,0-0.003,0-0.005,0c-0.004,0-0.008,0-0.012,0.001h0c-0.01,0-0.02,0.001-0.03,0.002
		c0,0,0,0,0,0c-0.004,0-0.008,0-0.012,0.001c-0.002,0-0.003,0-0.005,0c-0.004,0-0.007,0-0.011,0.001c-0.001,0-0.003,0-0.005,0
		c-0.004,0-0.008,0-0.011,0.001c-0.002,0-0.003,0-0.005,0c-0.004,0-0.008,0.001-0.011,0.001c-0.001,0-0.002,0-0.003,0
		c-0.013,0.001-0.028,0.002-0.041,0.003c-0.001,0-0.002,0-0.003,0c-0.004,0-0.008,0-0.012,0.001c-0.001,0-0.003,0-0.005,0
		c-0.003,0-0.007,0-0.011,0c-0.001,0-0.003,0-0.004,0c-0.004,0-0.008,0-0.012,0.001c-0.001,0-0.002,0-0.003,0
		c-0.004,0-0.009,0-0.013,0.001c0,0,0,0-0.001,0c-0.015,0.001-0.028,0.002-0.044,0.003c0,0-0.001,0-0.002,0
		c-0.004,0-0.008,0-0.012,0.001c-0.001,0-0.003,0-0.004,0c-0.005,0-0.007,0-0.012,0.001c-0.001,0-0.003,0-0.004,0
		c-0.004,0-0.008,0-0.012,0.001c-0.001,0-0.002,0-0.004,0c-0.018,0.001-0.038,0.003-0.056,0.004c-0.001,0-0.002,0-0.004,0
		c-0.004,0-0.008,0-0.012,0.001c-0.001,0-0.003,0-0.004,0c-0.004,0-0.008,0-0.012,0.001c-0.001,0-0.003,0-0.004,0
		c-0.003,0-0.009,0-0.013,0.001c0,0,0,0,0,0c-0.014,0.001-0.029,0.002-0.043,0.004c-0.001,0-0.002,0-0.003,0
		c-0.004,0-0.009,0.001-0.013,0.001c-0.001,0-0.002,0-0.003,0c-0.005,0-0.007,0-0.012,0.001c-0.001,0-0.002,0-0.004,0
		c-0.004,0-0.008,0-0.012,0.001c-0.001,0-0.002,0-0.003,0c-0.019,0.001-0.039,0.003-0.058,0.005c0,0,0,0-0.001,0
		c-0.005,0-0.008,0.001-0.013,0.001c-0.001,0-0.002,0-0.003,0c-0.005,0-0.008,0-0.013,0.001c-0.001,0-0.001,0-0.002,0
		c-0.005,0-0.009,0.001-0.014,0.001c0,0,0,0-0.001,0c-0.019,0.002-0.039,0.003-0.058,0.005c-0.001,0-0.002,0-0.003,0
		c-0.005,0-0.007,0-0.013,0.001c-0.001,0-0.002,0-0.003,0c-0.005,0-0.008,0-0.013,0.001c-0.001,0-0.002,0-0.003,0
		c-0.003,0-0.009,0.001-0.013,0.001l0,0c-0.015,0.001-0.029,0.003-0.044,0.004c-0.001,0-0.001,0-0.002,0
		c-0.005,0-0.008,0.001-0.013,0.001c-0.001,0-0.002,0-0.003,0c-0.005,0-0.008,0.001-0.013,0.001c-0.001,0-0.002,0-0.003,0
		c-0.005,0-0.008,0.001-0.014,0.001c0,0,0,0-0.001,0c-0.021,0.002-0.038,0.004-0.059,0.006c0,0-0.001,0-0.002,0
		c-0.004,0-0.008,0.001-0.012,0.001c-0.001,0-0.003,0-0.004,0c-0.005,0-0.007,0-0.013,0.001c-0.001,0-0.002,0-0.002,0
		c-0.026,0.002-0.048,0.005-0.073,0.007c-0.001,0-0.001,0-0.002,0c-0.005,0-0.008,0.001-0.013,0.001c-0.001,0-0.002,0-0.002,0
		c-0.005,0.001-0.008,0.001-0.013,0.001c-0.001,0-0.002,0-0.003,0c-0.019,0.002-0.039,0.004-0.058,0.006c-0.001,0-0.001,0-0.001,0
		c-0.005,0-0.009,0.001-0.014,0.001c-0.001,0-0.001,0-0.002,0c-0.005,0-0.008,0-0.013,0.001c-0.001,0-0.001,0-0.002,0
		C36.049,1.8,36.025,1.802,36,1.805l0,0c-0.005,0-0.009,0.001-0.014,0.001c0,0-0.001,0-0.002,0
		c-0.005,0.001-0.009,0.001-0.014,0.002c0,0,0,0-0.001,0c-0.025,0.002-0.049,0.005-0.075,0.008c0,0,0,0-0.001,0
		c-0.005,0.001-0.009,0.001-0.014,0.002c0,0-0.001,0-0.001,0c-0.005,0-0.009,0.001-0.014,0.001h0
		c-0.025,0.003-0.05,0.006-0.076,0.008h0c-0.036,0.004-0.07,0.008-0.105,0.012c0,0-0.001,0-0.001,0
		c-1.54,0.176-3.051,0.442-4.53,0.793c0,0,0,0-0.001,0c-0.039,0.009-0.077,0.018-0.116,0.028c0,0,0,0,0,0
		c-0.016,0.004-0.03,0.007-0.046,0.011c-0.618,0.15-0.998,0.773-0.848,1.392c0.127,0.528,0.6,0.882,1.12,0.882
		c0.09,0,0.181-0.01,0.272-0.033c2.797-0.677,5.69-1.02,8.597-1.02l0,0c1.079,0,2.168,0.048,3.237,0.142
		c0.034,0.003,0.068,0.004,0.103,0.004c0.591,0,1.094-0.452,1.147-1.052c0.056-0.634-0.413-1.194-1.047-1.25
		c-0.001,0-0.002,0-0.003,0c-0.004,0-0.007,0-0.011-0.001c-0.002,0-0.005,0-0.007,0c-0.002,0-0.004,0-0.007,0
		c-0.002,0-0.005,0-0.008-0.001c-0.003,0-0.003,0-0.006,0c-0.002,0-0.005,0-0.008,0c-0.002,0-0.004,0-0.006-0.001
		c-0.003,0-0.005,0-0.008,0c-0.001,0-0.004,0-0.006,0c-0.002,0-0.005,0-0.008-0.001c-0.001,0-0.003,0-0.005,0
		c-0.011-0.001-0.022-0.002-0.033-0.003l-0.003,0c-0.003,0-0.006,0-0.01,0c-0.001,0-0.003,0-0.004,0c-0.003,0-0.006,0-0.009-0.001
		c-0.003,0-0.002,0-0.005,0c-0.003,0-0.006,0-0.009,0c-0.001,0-0.003,0-0.004,0c-0.003,0-0.007,0-0.01-0.001
		c-0.001,0-0.002,0-0.003,0c-0.016-0.001-0.033-0.003-0.049-0.004c-0.001,0-0.001,0-0.002,0c-0.003,0-0.007,0-0.01-0.001
		c-0.001,0-0.002,0-0.004,0c-0.003,0-0.007,0-0.01-0.001c-0.001,0-0.002,0-0.003,0c-0.003,0-0.007,0-0.01,0
		c-0.001,0-0.002,0-0.003,0c-0.021-0.001-0.042-0.003-0.064-0.005h0c-0.004,0-0.008-0.001-0.012-0.001l-0.002,0
		c-0.004,0-0.008,0-0.012-0.001c-0.001,0,0,0-0.001,0c-0.004,0-0.008,0-0.012-0.001h0c-0.018-0.001-0.035-0.002-0.052-0.004h-0.001
		c-0.004,0-0.008-0.001-0.013-0.001l0,0c-0.004,0-0.009,0-0.013-0.001h0c-0.035-0.002-0.071-0.005-0.106-0.008h0
		c-0.493-0.036-0.989-0.063-1.487-0.081l0,0c-0.004,0-0.009,0-0.013,0h-0.001c-0.004,0-0.008,0-0.013,0h0c-0.004,0-0.009,0-0.013,0
		l0,0c-0.017,0-0.035-0.001-0.052-0.001h-0.002c-0.004,0-0.008,0-0.012,0c-0.001,0-0.001,0-0.002,0c-0.004,0-0.007,0-0.011,0h-0.002
		c-0.004,0-0.008,0-0.012,0c-0.001,0,0,0,0,0c-0.022,0-0.043-0.001-0.065-0.002c-0.001,0-0.001,0-0.003,0c-0.004,0-0.007,0-0.011,0
		c-0.001,0-0.001,0-0.002,0c-0.004,0-0.008,0-0.011,0c-0.001,0-0.001,0-0.003,0c-0.004,0-0.008,0-0.011,0h-0.001
		c-0.017,0-0.034-0.001-0.052-0.001h-0.001c-0.004,0-0.007,0-0.011,0c-0.001,0-0.003,0-0.004,0c-0.003,0-0.007,0-0.011,0h-0.003
		c-0.004,0-0.007,0-0.011,0c-0.001,0-0.001,0-0.002,0c-0.004,0-0.008,0-0.011,0h-0.002c-0.017,0-0.034-0.001-0.05-0.001
		c-0.001,0-0.002,0-0.003,0c-0.003,0-0.006,0-0.009,0s-0.003,0-0.005,0c-0.003,0-0.006,0-0.009,0c-0.002,0-0.003,0-0.006,0
		c-0.003,0-0.006,0-0.009,0c-0.001,0-0.003,0-0.004,0c-0.003,0-0.007,0-0.01,0h-0.001c-0.008,0-0.016,0-0.023-0.001
		c-0.001,0-0.001,0-0.002,0c-0.003,0-0.005,0-0.008,0c-0.001,0-0.005,0-0.006,0c-0.002,0-0.005,0-0.008,0s-0.004,0-0.006,0
		c-0.003,0-0.006,0-0.008,0s-0.004,0-0.006,0c-0.003,0-0.005,0-0.008,0c-0.002,0-0.004,0-0.006,0s-0.005,0-0.008,0
		c-0.003,0-0.005,0-0.008,0c-0.002,0-0.004,0-0.006,0c-0.004,0-0.007,0-0.011,0c-0.003,0-0.007,0-0.011,0c-0.002,0-0.004,0-0.007,0
		c-0.002,0-0.005,0-0.007,0c-0.001,0-0.006,0-0.007,0c-0.003,0-0.005,0-0.008,0s-0.004,0-0.007,0c-0.002,0-0.005,0-0.007,0
		c-0.003,0-0.005,0-0.007,0s-0.005,0-0.008,0c-0.001,0-0.005,0-0.006,0c-0.003,0-0.005,0-0.008,0c-0.002,0-0.004,0-0.007,0
		c-0.004,0-0.009,0-0.014,0c-0.003,0-0.005,0-0.007,0c-0.003,0-0.005,0-0.008,0c-0.001,0-0.005,0-0.007,0c-0.002,0-0.005,0-0.008,0
		c-0.002,0-0.004,0-0.006,0s-0.005,0-0.007,0c-0.003,0-0.005,0-0.007,0s-0.005,0-0.007,0s-0.005,0-0.008,0s-0.004,0-0.007,0
		c-0.001,0-0.005,0-0.007,0c-0.003,0-0.005,0-0.008,0c-0.002,0-0.002,0-0.004,0c-0.005,0-0.011,0-0.016,0c-0.003,0-0.005,0-0.008,0
		s-0.005,0-0.007,0s-0.005,0-0.007,0s-0.005,0-0.007,0c-0.002,0-0.005,0-0.007,0s-0.005,0-0.007,0s-0.005,0-0.008,0
		s-0.004,0-0.006,0c-0.002,0-0.006,0-0.008,0c-0.002,0-0.004,0-0.007,0c-0.004,0-0.004,0-0.008,0c-0.002,0-0.004,0-0.006,0
		c-0.005,0-0.008,0-0.014,0c-0.002,0-0.004,0-0.006,0c-0.004,0-0.005,0-0.009,0c-0.002,0-0.004,0-0.005,0c-0.003,0-0.006,0-0.009,0
		s-0.004,0-0.007,0s-0.006,0-0.009,0c-0.002,0-0.004,0-0.006,0c-0.002,0-0.006,0-0.009,0c-0.002,0-0.004,0-0.006,0
		c-0.004,0-0.006,0-0.01,0c-0.001,0-0.003,0-0.004,0c-0.005,0-0.009,0-0.015,0c0,0-0.001,0-0.002,0c-0.004,0-0.008,0-0.012,0
		c-0.001,0-0.003,0-0.005,0c-0.002,0-0.007,0-0.01,0c-0.002,0-0.004,0-0.006,0c-0.003,0-0.005,0-0.008,0s-0.005,0-0.007,0
		c-0.003,0-0.005,0-0.008,0c-0.002,0-0.004,0-0.006,0c-0.003,0-0.007,0-0.009,0c-0.002,0-0.003,0-0.005,0c-0.004,0-0.006,0-0.01,0
		c-0.001,0-0.003,0-0.005,0c-0.005,0-0.009,0-0.014,0c-0.001,0-0.003,0-0.005,0c-0.004,0-0.005,0-0.009,0c-0.002,0-0.004,0-0.007,0
		s-0.005,0-0.008,0c-0.002,0-0.004,0-0.006,0c-0.003,0-0.005,0-0.008,0s-0.005,0-0.007,0s-0.005,0-0.008,0c-0.002,0-0.004,0-0.006,0
		c-0.004,0-0.006,0-0.01,0c-0.001,0-0.003,0-0.004,0c-0.01,0-0.019,0-0.029,0c-0.002,0-0.003,0-0.004,0c-0.004,0-0.007,0-0.011,0
		c-0.001,0-0.003,0-0.005,0c-0.002,0-0.007,0-0.01,0c-0.002,0-0.004,0-0.005,0c-0.003,0-0.007,0-0.01,0c-0.002,0-0.003,0-0.005,0
		c-0.002,0-0.007,0-0.009,0c-0.002,0-0.004,0-0.006,0c-0.005,0-0.008,0-0.013,0c0,0,0,0-0.001,0c-0.005,0-0.01,0-0.015,0
		c-0.001,0-0.001,0-0.002,0c-0.004,0-0.008,0-0.012,0c-0.001,0-0.003,0-0.005,0c-0.003,0-0.007,0-0.01,0c-0.002,0-0.004,0-0.006,0
		c-0.002,0-0.007,0-0.009,0c-0.002,0-0.004,0-0.005,0c-0.003,0-0.006,0-0.009,0c-0.002,0-0.004,0-0.006,0c-0.004,0-0.006,0-0.01,0
		c-0.001,0-0.003,0-0.004,0C40.135,1.588,40.131,1.588,40.125,1.588L40.125,1.588z"/>
</g>
<g id="icomoon-ignore">
	<line fill="none" stroke="#479FD8" stroke-width="0.7687" x1="41.954" y1="45.48" x2="41.954" y2="45.48"/>
</g>
<g id="icomoon-ignore_1_">
	<line fill="none" stroke="#479FD8" stroke-width="0.7687" x1="41.954" y1="45.48" x2="41.954" y2="45.48"/>
</g>
<g id="icomoon-ignore_2_">
	<line fill="none" stroke="#479FD8" stroke-width="0.7687" x1="42.723" y1="45.48" x2="42.723" y2="45.48"/>
</g>
<g id="icomoon-ignore_3_">
	<line fill="none" stroke="#479FD8" stroke-width="0.7687" x1="41.954" y1="45.48" x2="41.954" y2="45.48"/>
</g>
<g id="icomoon-ignore_4_">
	<line fill="none" stroke="#479FD8" stroke-width="0.7687" x1="44.26" y1="47.019" x2="44.26" y2="47.019"/>
</g>
<g id="icomoon-ignore_5_">
	<line fill="none" stroke="#479FD8" x1="163.099" y1="-26.546" x2="163.099" y2="-26.546"/>
</g>
<g id="icomoon-ignore_6_">
	<line fill="none" stroke="#479FD8" stroke-width="0.7687" x1="42.723" y1="47.787" x2="42.723" y2="47.787"/>
</g>
<g id="icomoon-ignore_7_">
	<line fill="none" stroke="#479FD8" stroke-width="0.7687" x1="41.954" y1="47.019" x2="41.954" y2="47.019"/>
</g>
<g id="icomoon-ignore_8_">
	<line fill="none" stroke="#479FD8" x1="103.608" y1="-10.443" x2="103.608" y2="-10.443"/>
</g>
<path fill="#FFFFFF" d="M63.593,29.513L39.2,14.871c-2.449-1.471-5.626-0.677-7.097,1.772L16.13,43.253
	c-1.471,2.45-0.676,5.628,1.772,7.099l24.393,14.642c2.449,1.471,5.627,0.678,7.097-1.773L65.366,36.61
	C66.836,34.16,66.042,30.982,63.593,29.513z M47.175,61.889c-0.733,1.222-2.327,1.62-3.548,0.887L19.233,48.134
	c-1.223-0.733-1.619-2.327-0.886-3.55L34.32,17.976c0.734-1.223,2.326-1.622,3.549-0.887L62.262,31.73
	c1.222,0.733,1.621,2.326,0.887,3.549L47.175,61.889z M59.822,33.281l-22.176-13.31c-0.613-0.368-1.406-0.17-1.774,0.443
	l-11.98,19.958c-0.368,0.612-0.17,1.405,0.443,1.774l22.175,13.312c0.613,0.367,1.406,0.169,1.775-0.443l11.979-19.958
	C60.634,34.442,60.436,33.649,59.822,33.281z M59.157,34.391l-9.231,15.378l-1.254-6.077c-0.068-0.367-0.287-0.684-0.605-0.876
	c-0.319-0.189-0.704-0.235-1.057-0.123l-4.851,1.539l-2.798-15.18c-0.067-0.365-0.288-0.683-0.606-0.875
	c-0.318-0.189-0.703-0.235-1.057-0.123l-6.098,1.992l5.383-8.966L59.157,34.391z M30.592,31.726l7.497-2.44l3.064,16.623
	l0.933,5.384L25.001,41.037L30.592,31.726z M43.563,52.179l-1.169-6.666l5.007-1.588l1.521,7.518l-1.745,2.906L43.563,52.179z"/>
<g>
	<path fill-rule="evenodd" clip-rule="evenodd" fill="none" d="M57.073,14.624c0.001-4.97,4.067-9.036,9.048-9.02
		c5.117,0.016,9.073,4.216,9.014,9.139c-0.06,4.922-4.12,8.957-9.126,8.921C61.114,23.629,57.072,19.568,57.073,14.624z
		 M74.718,14.649c0.016-4.683-3.763-8.555-8.473-8.628c-4.798-0.075-8.684,3.778-8.752,8.479c-0.07,4.833,3.829,8.699,8.519,8.748
		C70.805,23.296,74.719,19.399,74.718,14.649z"/>
	<path fill-rule="evenodd" clip-rule="evenodd" fill="#FFFFFF" d="M74.718,14.649c0.001,4.75-3.913,8.647-8.706,8.598
		c-4.689-0.049-8.589-3.915-8.519-8.748c0.068-4.701,3.954-8.553,8.752-8.479C70.955,6.094,74.733,9.966,74.718,14.649z
		 M59.652,10.389c0.208,0,0.399,0.006,0.589-0.001c0.634-0.027,1.267-0.061,1.901-0.09c0.245-0.011,0.384,0.097,0.395,0.297
		c0.011,0.183-0.125,0.316-0.348,0.338c-0.269,0.026-0.538,0.051-0.827,0.079c0.938,2.787,1.871,5.561,2.811,8.361
		c0.023-0.043,0.03-0.054,0.034-0.065c0.547-1.637,1.094-3.275,1.636-4.915c0.021-0.061,0.01-0.143-0.013-0.206
		c-0.102-0.297-0.213-0.59-0.321-0.885c-0.278-0.764-0.558-1.53-0.835-2.292c-0.275-0.027-0.539-0.053-0.803-0.083
		c-0.202-0.022-0.312-0.148-0.299-0.336c0.014-0.188,0.138-0.299,0.341-0.294c0.145,0.002,0.29,0.019,0.435,0.023
		c0.604,0.021,1.207,0.058,1.81,0.054c0.604-0.005,1.207-0.053,1.811-0.078c0.235-0.01,0.368,0.095,0.382,0.29
		c0.014,0.184-0.122,0.322-0.341,0.346c-0.271,0.026-0.544,0.052-0.833,0.08c0.931,2.767,1.854,5.513,2.792,8.3
		c0.028-0.077,0.041-0.109,0.05-0.141c0.367-1.213,0.733-2.426,1.097-3.64c0.209-0.698,0.298-1.404,0.128-2.127
		c-0.137-0.583-0.43-1.095-0.729-1.608c-0.2-0.341-0.395-0.698-0.511-1.073C69.75,9.911,70.22,9.105,70.997,8.94
		c0.095-0.02,0.193-0.024,0.303-0.037C67.797,5.669,62.12,6.469,59.652,10.389z M66.263,15.366
		c-0.014,0.002-0.028,0.002-0.042,0.005c-0.767,2.226-1.533,4.453-2.304,6.693c1.612,0.453,3.184,0.418,4.748-0.121
		C67.858,19.736,67.06,17.551,66.263,15.366z M62.721,21.585c-1.232-3.375-2.453-6.719-3.679-10.078
		C57.425,14.906,58.71,19.675,62.721,21.585z M70.016,21.28c1.871-1.11,3.094-2.705,3.61-4.805c0.467-1.902,0.224-3.729-0.687-5.463
		c-0.015,0.05-0.018,0.097-0.013,0.145c0.096,0.949-0.05,1.867-0.359,2.762c-0.727,2.11-1.462,4.218-2.194,6.327
		C70.254,20.59,70.135,20.934,70.016,21.28z"/>
	<path fill-rule="evenodd" clip-rule="evenodd" fill="#327BBF" d="M59.652,10.389c2.468-3.92,8.145-4.72,11.648-1.486
		c-0.11,0.013-0.208,0.018-0.303,0.037c-0.777,0.165-1.247,0.971-0.995,1.783c0.117,0.375,0.312,0.732,0.511,1.073
		c0.298,0.513,0.591,1.024,0.729,1.608c0.17,0.723,0.081,1.429-0.128,2.127c-0.363,1.214-0.73,2.427-1.097,3.64
		c-0.01,0.032-0.022,0.064-0.05,0.141c-0.938-2.787-1.861-5.533-2.792-8.3c0.289-0.028,0.562-0.054,0.833-0.08
		c0.219-0.023,0.354-0.162,0.341-0.346c-0.014-0.194-0.147-0.299-0.382-0.29c-0.604,0.024-1.207,0.073-1.811,0.078
		c-0.604,0.004-1.207-0.034-1.81-0.054c-0.145-0.005-0.29-0.021-0.435-0.023c-0.203-0.005-0.327,0.107-0.341,0.294
		c-0.013,0.188,0.097,0.314,0.299,0.336c0.264,0.029,0.528,0.056,0.803,0.083c0.278,0.762,0.557,1.528,0.835,2.292
		c0.108,0.295,0.219,0.588,0.321,0.885c0.022,0.063,0.033,0.145,0.013,0.206c-0.542,1.64-1.089,3.278-1.636,4.915
		c-0.003,0.011-0.011,0.022-0.034,0.065c-0.94-2.8-1.874-5.574-2.811-8.361c0.289-0.028,0.558-0.053,0.827-0.079
		c0.223-0.022,0.359-0.156,0.348-0.338c-0.011-0.2-0.15-0.308-0.395-0.297c-0.634,0.029-1.267,0.063-1.901,0.09
		C60.052,10.395,59.861,10.389,59.652,10.389z"/>
	<path fill-rule="evenodd" clip-rule="evenodd" fill="#327BBF" d="M66.263,15.366c0.797,2.185,1.596,4.37,2.402,6.577
		c-1.564,0.539-3.136,0.574-4.748,0.121c0.771-2.241,1.537-4.467,2.304-6.693C66.234,15.368,66.249,15.368,66.263,15.366z"/>
	<path fill-rule="evenodd" clip-rule="evenodd" fill="#327BBF" d="M62.721,21.585c-4.011-1.91-5.296-6.679-3.679-10.078
		C60.269,14.866,61.489,18.21,62.721,21.585z"/>
	<path fill-rule="evenodd" clip-rule="evenodd" fill="#327BBF" d="M70.016,21.28c0.119-0.346,0.238-0.69,0.358-1.035
		c0.731-2.108,1.467-4.217,2.194-6.327c0.309-0.895,0.455-1.813,0.359-2.762c-0.005-0.047-0.001-0.095,0.013-0.145
		c0.91,1.734,1.153,3.561,0.687,5.463C73.11,18.575,71.887,20.169,70.016,21.28z"/>
</g>
<g>
	<polygon fill="#FFF200" points="52.538,40.027 49.842,38.871 47.321,40.368 47.635,37.522 45.395,35.667 48.284,35.065 
		49.42,32.42 50.892,34.896 53.835,35.115 51.855,37.246 	"/>
</g>
</svg>
